{
	"patcher" : 	{
		"fileversion" : 1,
		"appversion" : 		{
			"major" : 8,
			"minor" : 6,
			"revision" : 1,
			"architecture" : "x64",
			"modernui" : 1
		}
,
		"classnamespace" : "box",
		"rect" : [ 1030.0, 196.0, 1028.0, 733.0 ],
		"bglocked" : 0,
		"openinpresentation" : 0,
		"default_fontsize" : 12.0,
		"default_fontface" : 0,
		"default_fontname" : "Arial",
		"gridonopen" : 1,
		"gridsize" : [ 15.0, 15.0 ],
		"gridsnaponopen" : 1,
		"objectsnaponopen" : 1,
		"statusbarvisible" : 2,
		"toolbarvisible" : 1,
		"lefttoolbarpinned" : 0,
		"toptoolbarpinned" : 0,
		"righttoolbarpinned" : 0,
		"bottomtoolbarpinned" : 0,
		"toolbars_unpinned_last_save" : 0,
		"tallnewobj" : 0,
		"boxanimatetime" : 200,
		"enablehscroll" : 1,
		"enablevscroll" : 1,
		"devicewidth" : 0.0,
		"description" : "",
		"digest" : "",
		"tags" : "",
		"style" : "",
		"subpatcher_template" : "",
		"assistshowspatchername" : 0,
		"boxes" : [ 			{
				"box" : 				{
					"id" : "obj-123",
					"items" : "<empty>",
					"maxclass" : "umenu",
					"numinlets" : 1,
					"numoutlets" : 3,
					"outlettype" : [ "int", "", "" ],
					"parameter_enable" : 0,
					"patching_rect" : [ 424.107138574123383, 683.9285649061203, 100.0, 22.0 ]
				}

			}
, 			{
				"box" : 				{
					"id" : "obj-121",
					"maxclass" : "number",
					"numinlets" : 1,
					"numoutlets" : 2,
					"outlettype" : [ "", "bang" ],
					"parameter_enable" : 0,
					"patching_rect" : [ 930.571420192718506, 545.535709083080292, 50.0, 22.0 ]
				}

			}
, 			{
				"box" : 				{
					"id" : "obj-117",
					"maxclass" : "newobj",
					"numinlets" : 2,
					"numoutlets" : 1,
					"outlettype" : [ "" ],
					"patching_rect" : [ 930.571420192718506, 499.999995231628418, 89.0, 22.0 ],
					"text" : "random 60 128"
				}

			}
, 			{
				"box" : 				{
					"id" : "obj-116",
					"maxclass" : "button",
					"numinlets" : 1,
					"numoutlets" : 1,
					"outlettype" : [ "bang" ],
					"parameter_enable" : 0,
					"patching_rect" : [ 914.28570556640625, 318.749996960163116, 24.0, 24.0 ]
				}

			}
, 			{
				"box" : 				{
					"id" : "obj-114",
					"maxclass" : "number",
					"numinlets" : 1,
					"numoutlets" : 2,
					"outlettype" : [ "", "bang" ],
					"parameter_enable" : 0,
					"patching_rect" : [ 914.28570556640625, 398.214281916618347, 50.0, 22.0 ]
				}

			}
, 			{
				"box" : 				{
					"id" : "obj-112",
					"maxclass" : "newobj",
					"numinlets" : 2,
					"numoutlets" : 1,
					"outlettype" : [ "" ],
					"patching_rect" : [ 914.28570556640625, 358.928568005561829, 73.0, 22.0 ],
					"text" : "random 401"
				}

			}
, 			{
				"box" : 				{
					"id" : "obj-109",
					"maxclass" : "newobj",
					"numinlets" : 2,
					"numoutlets" : 1,
					"outlettype" : [ "int" ],
					"patching_rect" : [ 754.464278519153595, 539.285709142684937, 32.0, 22.0 ],
					"text" : "+ 36"
				}

			}
, 			{
				"box" : 				{
					"id" : "obj-108",
					"maxclass" : "number",
					"numinlets" : 1,
					"numoutlets" : 2,
					"outlettype" : [ "", "bang" ],
					"parameter_enable" : 0,
					"patching_rect" : [ 754.464278519153595, 499.999995231628418, 50.0, 22.0 ]
				}

			}
, 			{
				"box" : 				{
					"id" : "obj-106",
					"maxclass" : "newobj",
					"numinlets" : 2,
					"numoutlets" : 1,
					"outlettype" : [ "" ],
					"patching_rect" : [ 754.464278519153595, 455.357138514518738, 66.0, 22.0 ],
					"text" : "random 48"
				}

			}
, 			{
				"box" : 				{
					"id" : "obj-105",
					"maxclass" : "button",
					"numinlets" : 1,
					"numoutlets" : 1,
					"outlettype" : [ "bang" ],
					"parameter_enable" : 0,
					"patching_rect" : [ 754.464278519153595, 406.24999612569809, 24.0, 24.0 ]
				}

			}
, 			{
				"box" : 				{
					"id" : "obj-103",
					"maxclass" : "number",
					"numinlets" : 1,
					"numoutlets" : 2,
					"outlettype" : [ "", "bang" ],
					"parameter_enable" : 0,
					"patching_rect" : [ 688.392850577831268, 539.285709142684937, 50.0, 22.0 ]
				}

			}
, 			{
				"box" : 				{
					"id" : "obj-101",
					"maxclass" : "number",
					"numinlets" : 1,
					"numoutlets" : 2,
					"outlettype" : [ "", "bang" ],
					"parameter_enable" : 0,
					"patching_rect" : [ 619.642851233482361, 539.285709142684937, 50.0, 22.0 ]
				}

			}
, 			{
				"box" : 				{
					"id" : "obj-99",
					"maxclass" : "newobj",
					"numinlets" : 2,
					"numoutlets" : 1,
					"outlettype" : [ "int" ],
					"patching_rect" : [ 688.392850577831268, 499.999995231628418, 29.5, 22.0 ],
					"text" : "+ 7"
				}

			}
, 			{
				"box" : 				{
					"id" : "obj-98",
					"maxclass" : "newobj",
					"numinlets" : 2,
					"numoutlets" : 1,
					"outlettype" : [ "int" ],
					"patching_rect" : [ 619.642851233482361, 499.999995231628418, 29.5, 22.0 ],
					"text" : "+ 4"
				}

			}
, 			{
				"box" : 				{
					"id" : "obj-96",
					"maxclass" : "newobj",
					"numinlets" : 3,
					"numoutlets" : 0,
					"patching_rect" : [ 552.678566157817841, 742.857135772705078, 49.0, 22.0 ],
					"text" : "noteout"
				}

			}
, 			{
				"box" : 				{
					"id" : "obj-97",
					"maxclass" : "newobj",
					"numinlets" : 3,
					"numoutlets" : 2,
					"outlettype" : [ "float", "float" ],
					"patching_rect" : [ 552.678566157817841, 683.9285649061203, 108.0, 22.0 ],
					"text" : "makenote 127 500"
				}

			}
, 			{
				"box" : 				{
					"id" : "obj-95",
					"maxclass" : "number",
					"numinlets" : 1,
					"numoutlets" : 2,
					"outlettype" : [ "", "bang" ],
					"parameter_enable" : 0,
					"patching_rect" : [ 552.678566157817841, 539.285709142684937, 50.0, 22.0 ]
				}

			}
, 			{
				"box" : 				{
					"id" : "obj-93",
					"maxclass" : "newobj",
					"numinlets" : 5,
					"numoutlets" : 4,
					"outlettype" : [ "int", "", "", "int" ],
					"patching_rect" : [ 552.678566157817841, 450.89285284280777, 92.0, 22.0 ],
					"text" : "counter 2 36 83"
				}

			}
, 			{
				"box" : 				{
					"id" : "obj-92",
					"maxclass" : "newobj",
					"numinlets" : 2,
					"numoutlets" : 1,
					"outlettype" : [ "bang" ],
					"patching_rect" : [ 552.678566157817841, 273.214283108711243, 63.0, 22.0 ],
					"text" : "metro 250"
				}

			}
, 			{
				"box" : 				{
					"id" : "obj-91",
					"maxclass" : "toggle",
					"numinlets" : 1,
					"numoutlets" : 1,
					"outlettype" : [ "int" ],
					"parameter_enable" : 0,
					"patching_rect" : [ 552.678566157817841, 193.749998152256012, 24.0, 24.0 ]
				}

			}
, 			{
				"box" : 				{
					"id" : "obj-86",
					"maxclass" : "newobj",
					"numinlets" : 3,
					"numoutlets" : 0,
					"patching_rect" : [ 317.857139825820923, 648.214279532432556, 49.0, 22.0 ],
					"text" : "noteout"
				}

			}
, 			{
				"box" : 				{
					"id" : "obj-85",
					"maxclass" : "newobj",
					"numinlets" : 3,
					"numoutlets" : 2,
					"outlettype" : [ "float", "float" ],
					"patching_rect" : [ 317.857139825820923, 602.678565680980682, 108.0, 22.0 ],
					"text" : "makenote 127 500"
				}

			}
, 			{
				"box" : 				{
					"id" : "obj-83",
					"maxclass" : "number",
					"numinlets" : 1,
					"numoutlets" : 2,
					"outlettype" : [ "", "bang" ],
					"parameter_enable" : 0,
					"patching_rect" : [ 449.107138574123383, 545.535709083080292, 50.0, 22.0 ]
				}

			}
, 			{
				"box" : 				{
					"id" : "obj-82",
					"maxclass" : "number",
					"numinlets" : 1,
					"numoutlets" : 2,
					"outlettype" : [ "", "bang" ],
					"parameter_enable" : 0,
					"patching_rect" : [ 383.035710632801056, 545.535709083080292, 50.0, 22.0 ]
				}

			}
, 			{
				"box" : 				{
					"id" : "obj-81",
					"maxclass" : "number",
					"numinlets" : 1,
					"numoutlets" : 2,
					"outlettype" : [ "", "bang" ],
					"parameter_enable" : 0,
					"patching_rect" : [ 317.857139825820923, 545.535709083080292, 50.0, 22.0 ]
				}

			}
, 			{
				"box" : 				{
					"id" : "obj-79",
					"maxclass" : "button",
					"numinlets" : 1,
					"numoutlets" : 1,
					"outlettype" : [ "bang" ],
					"parameter_enable" : 0,
					"patching_rect" : [ 438.392852962017059, 497.321423828601837, 24.0, 24.0 ]
				}

			}
, 			{
				"box" : 				{
					"id" : "obj-69",
					"maxclass" : "newobj",
					"numinlets" : 5,
					"numoutlets" : 5,
					"outlettype" : [ "bang", "bang", "bang", "bang", "" ],
					"patching_rect" : [ 317.857139825820923, 455.357138514518738, 80.0, 22.0 ],
					"text" : "select 1 5 7 8"
				}

			}
, 			{
				"box" : 				{
					"id" : "obj-68",
					"maxclass" : "number",
					"numinlets" : 1,
					"numoutlets" : 2,
					"outlettype" : [ "", "bang" ],
					"parameter_enable" : 0,
					"patching_rect" : [ 317.857139825820923, 407.142853260040283, 50.0, 22.0 ]
				}

			}
, 			{
				"box" : 				{
					"id" : "obj-66",
					"maxclass" : "newobj",
					"numinlets" : 2,
					"numoutlets" : 1,
					"outlettype" : [ "bang" ],
					"patching_rect" : [ 317.857139825820923, 317.857139825820923, 63.0, 22.0 ],
					"text" : "metro 500"
				}

			}
, 			{
				"box" : 				{
					"id" : "obj-63",
					"maxclass" : "toggle",
					"numinlets" : 1,
					"numoutlets" : 1,
					"outlettype" : [ "int" ],
					"parameter_enable" : 0,
					"patching_rect" : [ 317.857139825820923, 267.857140302658081, 24.0, 24.0 ]
				}

			}
, 			{
				"box" : 				{
					"id" : "obj-59",
					"maxclass" : "newobj",
					"numinlets" : 5,
					"numoutlets" : 4,
					"outlettype" : [ "int", "", "", "int" ],
					"patching_rect" : [ 317.857139825820923, 362.499996542930603, 69.0, 22.0 ],
					"text" : "counter 1 8"
				}

			}
, 			{
				"box" : 				{
					"bgcolor" : [ 0.513725490196078, 0.258823529411765, 1.0, 1.0 ],
					"id" : "obj-46",
					"maxclass" : "number",
					"numinlets" : 1,
					"numoutlets" : 2,
					"outlettype" : [ "", "bang" ],
					"parameter_enable" : 0,
					"patching_rect" : [ 438.392852962017059, 282.142854452133179, 50.0, 22.0 ]
				}

			}
, 			{
				"box" : 				{
					"bgcolor" : [ 0.513725490196078, 0.258823529411765, 1.0, 1.0 ],
					"id" : "obj-34",
					"maxclass" : "newobj",
					"numinlets" : 2,
					"numoutlets" : 0,
					"patching_rect" : [ 438.392852962017059, 340.178568184375763, 49.0, 22.0 ],
					"text" : "pgmout"
				}

			}
, 			{
				"box" : 				{
					"id" : "obj-26",
					"maxclass" : "number",
					"numinlets" : 1,
					"numoutlets" : 2,
					"outlettype" : [ "", "bang" ],
					"parameter_enable" : 0,
					"patching_rect" : [ 106.153839826583862, 148.461529612541199, 50.0, 22.0 ]
				}

			}
, 			{
				"box" : 				{
					"id" : "obj-6",
					"maxclass" : "comment",
					"numinlets" : 1,
					"numoutlets" : 0,
					"patching_rect" : [ 290.769213438034058, 84.615379571914673, 30.50847315788269, 20.0 ],
					"text" : "dur"
				}

			}
, 			{
				"box" : 				{
					"id" : "obj-5",
					"maxclass" : "comment",
					"numinlets" : 1,
					"numoutlets" : 0,
					"patching_rect" : [ 226.153832674026489, 84.615379571914673, 30.50847315788269, 20.0 ],
					"text" : "vel"
				}

			}
, 			{
				"box" : 				{
					"id" : "obj-3",
					"maxclass" : "slider",
					"min" : 10.0,
					"mult" : 20.0,
					"numinlets" : 1,
					"numoutlets" : 1,
					"outlettype" : [ "" ],
					"parameter_enable" : 0,
					"patching_rect" : [ 290.769213438034058, 113.076916337013245, 38.135591447353363, 111.864401578903198 ]
				}

			}
, 			{
				"box" : 				{
					"id" : "obj-2",
					"maxclass" : "slider",
					"numinlets" : 1,
					"numoutlets" : 1,
					"outlettype" : [ "" ],
					"parameter_enable" : 0,
					"patching_rect" : [ 222.307679057121277, 113.846147060394287, 38.135591447353363, 111.864401578903198 ]
				}

			}
, 			{
				"box" : 				{
					"id" : "obj-65",
					"maxclass" : "newobj",
					"numinlets" : 3,
					"numoutlets" : 2,
					"outlettype" : [ "float", "float" ],
					"patching_rect" : [ 106.153839826583862, 260.769215226173401, 115.0, 22.0 ],
					"text" : "makenote 127 1000"
				}

			}
, 			{
				"box" : 				{
					"id" : "obj-64",
					"maxclass" : "newobj",
					"numinlets" : 3,
					"numoutlets" : 0,
					"patching_rect" : [ 106.153839826583862, 347.692286968231201, 49.0, 22.0 ],
					"text" : "noteout"
				}

			}
, 			{
				"box" : 				{
					"format" : 4,
					"id" : "obj-58",
					"maxclass" : "number",
					"numinlets" : 1,
					"numoutlets" : 2,
					"outlettype" : [ "", "bang" ],
					"parameter_enable" : 0,
					"patching_rect" : [ 106.153839826583862, 203.846141695976257, 50.0, 22.0 ]
				}

			}
, 			{
				"box" : 				{
					"id" : "obj-53",
					"maxclass" : "number",
					"numinlets" : 1,
					"numoutlets" : 2,
					"outlettype" : [ "", "bang" ],
					"parameter_enable" : 0,
					"patching_rect" : [ 423.0, 108.46153199672699, 50.0, 22.0 ]
				}

			}
, 			{
				"box" : 				{
					"id" : "obj-50",
					"maxclass" : "kslider",
					"numinlets" : 2,
					"numoutlets" : 2,
					"outlettype" : [ "int", "int" ],
					"parameter_enable" : 0,
					"patching_rect" : [ 106.0, 19.0, 336.0, 53.0 ]
				}

			}
 ],
		"lines" : [ 			{
				"patchline" : 				{
					"destination" : [ "obj-97", 0 ],
					"source" : [ "obj-101", 0 ]
				}

			}
, 			{
				"patchline" : 				{
					"destination" : [ "obj-97", 0 ],
					"source" : [ "obj-103", 0 ]
				}

			}
, 			{
				"patchline" : 				{
					"destination" : [ "obj-106", 0 ],
					"source" : [ "obj-105", 0 ]
				}

			}
, 			{
				"patchline" : 				{
					"destination" : [ "obj-108", 0 ],
					"source" : [ "obj-106", 0 ]
				}

			}
, 			{
				"patchline" : 				{
					"destination" : [ "obj-109", 0 ],
					"source" : [ "obj-108", 0 ]
				}

			}
, 			{
				"patchline" : 				{
					"destination" : [ "obj-97", 0 ],
					"source" : [ "obj-109", 0 ]
				}

			}
, 			{
				"patchline" : 				{
					"destination" : [ "obj-114", 0 ],
					"source" : [ "obj-112", 0 ]
				}

			}
, 			{
				"patchline" : 				{
					"destination" : [ "obj-92", 1 ],
					"midpoints" : [ 923.78570556640625, 426.0, 831.0, 426.0, 831.0, 261.0, 606.178566157817841, 261.0 ],
					"order" : 1,
					"source" : [ "obj-114", 0 ]
				}

			}
, 			{
				"patchline" : 				{
					"destination" : [ "obj-97", 2 ],
					"midpoints" : [ 923.78570556640625, 441.0, 831.0, 441.0, 831.0, 669.0, 651.178566157817841, 669.0 ],
					"order" : 0,
					"source" : [ "obj-114", 0 ]
				}

			}
, 			{
				"patchline" : 				{
					"destination" : [ "obj-112", 0 ],
					"order" : 1,
					"source" : [ "obj-116", 0 ]
				}

			}
, 			{
				"patchline" : 				{
					"destination" : [ "obj-117", 0 ],
					"midpoints" : [ 923.78570556640625, 345.0, 900.0, 345.0, 900.0, 474.0, 940.071420192718506, 474.0 ],
					"order" : 0,
					"source" : [ "obj-116", 0 ]
				}

			}
, 			{
				"patchline" : 				{
					"destination" : [ "obj-121", 0 ],
					"source" : [ "obj-117", 0 ]
				}

			}
, 			{
				"patchline" : 				{
					"destination" : [ "obj-97", 1 ],
					"source" : [ "obj-121", 0 ]
				}

			}
, 			{
				"patchline" : 				{
					"destination" : [ "obj-65", 1 ],
					"source" : [ "obj-2", 0 ]
				}

			}
, 			{
				"patchline" : 				{
					"destination" : [ "obj-58", 0 ],
					"source" : [ "obj-26", 0 ]
				}

			}
, 			{
				"patchline" : 				{
					"destination" : [ "obj-65", 2 ],
					"source" : [ "obj-3", 0 ]
				}

			}
, 			{
				"patchline" : 				{
					"destination" : [ "obj-34", 0 ],
					"source" : [ "obj-46", 0 ]
				}

			}
, 			{
				"patchline" : 				{
					"destination" : [ "obj-26", 0 ],
					"source" : [ "obj-50", 0 ]
				}

			}
, 			{
				"patchline" : 				{
					"destination" : [ "obj-53", 0 ],
					"source" : [ "obj-50", 1 ]
				}

			}
, 			{
				"patchline" : 				{
					"destination" : [ "obj-65", 0 ],
					"source" : [ "obj-58", 0 ]
				}

			}
, 			{
				"patchline" : 				{
					"destination" : [ "obj-68", 0 ],
					"source" : [ "obj-59", 0 ]
				}

			}
, 			{
				"patchline" : 				{
					"destination" : [ "obj-66", 0 ],
					"source" : [ "obj-63", 0 ]
				}

			}
, 			{
				"patchline" : 				{
					"destination" : [ "obj-64", 1 ],
					"source" : [ "obj-65", 1 ]
				}

			}
, 			{
				"patchline" : 				{
					"destination" : [ "obj-64", 0 ],
					"source" : [ "obj-65", 0 ]
				}

			}
, 			{
				"patchline" : 				{
					"destination" : [ "obj-59", 0 ],
					"source" : [ "obj-66", 0 ]
				}

			}
, 			{
				"patchline" : 				{
					"destination" : [ "obj-69", 0 ],
					"source" : [ "obj-68", 0 ]
				}

			}
, 			{
				"patchline" : 				{
					"destination" : [ "obj-79", 0 ],
					"source" : [ "obj-69", 3 ]
				}

			}
, 			{
				"patchline" : 				{
					"destination" : [ "obj-81", 0 ],
					"source" : [ "obj-69", 0 ]
				}

			}
, 			{
				"patchline" : 				{
					"destination" : [ "obj-82", 0 ],
					"source" : [ "obj-69", 1 ]
				}

			}
, 			{
				"patchline" : 				{
					"destination" : [ "obj-83", 0 ],
					"source" : [ "obj-69", 2 ]
				}

			}
, 			{
				"patchline" : 				{
					"destination" : [ "obj-81", 0 ],
					"order" : 2,
					"source" : [ "obj-79", 0 ]
				}

			}
, 			{
				"patchline" : 				{
					"destination" : [ "obj-82", 0 ],
					"order" : 1,
					"source" : [ "obj-79", 0 ]
				}

			}
, 			{
				"patchline" : 				{
					"destination" : [ "obj-83", 0 ],
					"order" : 0,
					"source" : [ "obj-79", 0 ]
				}

			}
, 			{
				"patchline" : 				{
					"destination" : [ "obj-85", 0 ],
					"source" : [ "obj-81", 0 ]
				}

			}
, 			{
				"patchline" : 				{
					"destination" : [ "obj-85", 0 ],
					"source" : [ "obj-82", 0 ]
				}

			}
, 			{
				"patchline" : 				{
					"destination" : [ "obj-85", 0 ],
					"source" : [ "obj-83", 0 ]
				}

			}
, 			{
				"patchline" : 				{
					"destination" : [ "obj-86", 1 ],
					"source" : [ "obj-85", 1 ]
				}

			}
, 			{
				"patchline" : 				{
					"destination" : [ "obj-86", 0 ],
					"source" : [ "obj-85", 0 ]
				}

			}
, 			{
				"patchline" : 				{
					"destination" : [ "obj-92", 0 ],
					"source" : [ "obj-91", 0 ]
				}

			}
, 			{
				"patchline" : 				{
					"destination" : [ "obj-116", 0 ],
					"midpoints" : [ 562.178566157817841, 308.107142865657806, 923.78570556640625, 308.107142865657806 ],
					"order" : 0,
					"source" : [ "obj-92", 0 ]
				}

			}
, 			{
				"patchline" : 				{
					"destination" : [ "obj-93", 0 ],
					"order" : 1,
					"source" : [ "obj-92", 0 ]
				}

			}
, 			{
				"patchline" : 				{
					"destination" : [ "obj-95", 0 ],
					"order" : 2,
					"source" : [ "obj-93", 0 ]
				}

			}
, 			{
				"patchline" : 				{
					"destination" : [ "obj-98", 0 ],
					"order" : 1,
					"source" : [ "obj-93", 0 ]
				}

			}
, 			{
				"patchline" : 				{
					"destination" : [ "obj-99", 0 ],
					"order" : 0,
					"source" : [ "obj-93", 0 ]
				}

			}
, 			{
				"patchline" : 				{
					"destination" : [ "obj-97", 0 ],
					"source" : [ "obj-95", 0 ]
				}

			}
, 			{
				"patchline" : 				{
					"destination" : [ "obj-96", 1 ],
					"source" : [ "obj-97", 1 ]
				}

			}
, 			{
				"patchline" : 				{
					"destination" : [ "obj-96", 0 ],
					"source" : [ "obj-97", 0 ]
				}

			}
, 			{
				"patchline" : 				{
					"destination" : [ "obj-101", 0 ],
					"source" : [ "obj-98", 0 ]
				}

			}
, 			{
				"patchline" : 				{
					"destination" : [ "obj-103", 0 ],
					"source" : [ "obj-99", 0 ]
				}

			}
 ],
		"dependency_cache" : [  ],
		"autosave" : 0,
		"styles" : [ 			{
				"name" : "rnbomonokai",
				"default" : 				{
					"accentcolor" : [ 0.501960784313725, 0.501960784313725, 0.501960784313725, 1.0 ],
					"bgcolor" : [ 0.0, 0.0, 0.0, 1.0 ],
					"bgfillcolor" : 					{
						"angle" : 270.0,
						"autogradient" : 0.0,
						"color" : [ 0.0, 0.0, 0.0, 1.0 ],
						"color1" : [ 0.031372549019608, 0.125490196078431, 0.211764705882353, 1.0 ],
						"color2" : [ 0.263682, 0.004541, 0.038797, 1.0 ],
						"proportion" : 0.39,
						"type" : "color"
					}
,
					"clearcolor" : [ 0.976470588235294, 0.96078431372549, 0.917647058823529, 1.0 ],
					"color" : [ 0.611764705882353, 0.125490196078431, 0.776470588235294, 1.0 ],
					"editing_bgcolor" : [ 0.976470588235294, 0.96078431372549, 0.917647058823529, 1.0 ],
					"elementcolor" : [ 0.749019607843137, 0.83921568627451, 1.0, 1.0 ],
					"fontname" : [ "Lato" ],
					"locked_bgcolor" : [ 0.976470588235294, 0.96078431372549, 0.917647058823529, 1.0 ],
					"stripecolor" : [ 0.796078431372549, 0.207843137254902, 1.0, 1.0 ],
					"textcolor" : [ 0.129412, 0.129412, 0.129412, 1.0 ]
				}
,
				"parentstyle" : "",
				"multi" : 0
			}
 ]
	}

}
