{
	"patcher" : 	{
		"fileversion" : 1,
		"appversion" : 		{
			"major" : 9,
			"minor" : 0,
			"revision" : 3,
			"architecture" : "x64",
			"modernui" : 1
		}
,
		"classnamespace" : "box",
		"rect" : [ 365.0, 149.0, 1806.0, 1065.0 ],
		"gridsize" : [ 15.0, 15.0 ],
		"boxes" : [ 			{
				"box" : 				{
					"annotation" : "## Create a dutone video image ##",
					"bgmode" : 1,
					"border" : 0,
					"clickthrough" : 0,
					"enablehscroll" : 0,
					"enablevscroll" : 0,
					"id" : "obj-49",
					"lockeddragscroll" : 0,
					"lockedsize" : 0,
					"maxclass" : "bpatcher",
					"name" : "vz.2tonr.maxpat",
					"numinlets" : 9,
					"numoutlets" : 1,
					"offset" : [ 0.0, 0.0 ],
					"outlettype" : [ "jit_gl_texture" ],
					"patching_rect" : [ 1639.0, 274.0, 228.0, 130.0 ],
					"prototypename" : "pixl",
					"varname" : "2toner",
					"viewvisibility" : 1
				}

			}
, 			{
				"box" : 				{
					"annotation" : "## Kaleidoscope-like video image folding ##",
					"bgmode" : 1,
					"border" : 0,
					"clickthrough" : 0,
					"enablehscroll" : 0,
					"enablevscroll" : 0,
					"id" : "obj-17",
					"lockeddragscroll" : 0,
					"lockedsize" : 0,
					"maxclass" : "bpatcher",
					"name" : "vz.kaleidr.maxpat",
					"numinlets" : 5,
					"numoutlets" : 1,
					"offset" : [ 0.0, 0.0 ],
					"outlettype" : [ "jit_gl_texture" ],
					"patching_rect" : [ 1553.0, 533.0, 188.0, 130.0 ],
					"prototypename" : "pixl",
					"varname" : "kaleidr",
					"viewvisibility" : 1
				}

			}
, 			{
				"box" : 				{
					"enable" : 1,
					"erase_color" : [ 0.0, 0.0, 0.0, 1.0 ],
					"fps" : 30.0,
					"id" : "obj-37",
					"maxclass" : "jit.pworld",
					"numinlets" : 1,
					"numoutlets" : 2,
					"outlettype" : [ "jit_matrix", "" ],
					"patching_rect" : [ 1331.0, 649.0, 169.0, 317.0 ],
					"sync" : 1
				}

			}
, 			{
				"box" : 				{
					"annotation" : "## Pixilate a video ##",
					"bgmode" : 1,
					"border" : 0,
					"clickthrough" : 0,
					"enablehscroll" : 0,
					"enablevscroll" : 0,
					"id" : "obj-7",
					"lockeddragscroll" : 0,
					"lockedsize" : 0,
					"maxclass" : "bpatcher",
					"name" : "vz.pixl8r.maxpat",
					"numinlets" : 3,
					"numoutlets" : 1,
					"offset" : [ 0.0, 0.0 ],
					"outlettype" : [ "jit_gl_texture" ],
					"patching_rect" : [ 1337.0, 433.0, 128.0, 130.0 ],
					"prototypename" : "pixl",
					"varname" : "pixl8r",
					"viewvisibility" : 1
				}

			}
, 			{
				"box" : 				{
					"annotation" : "## Separate and offset R, G, and B video components ##",
					"bgmode" : 1,
					"border" : 0,
					"clickthrough" : 0,
					"enablehscroll" : 0,
					"enablevscroll" : 0,
					"id" : "obj-33",
					"lockeddragscroll" : 0,
					"lockedsize" : 0,
					"maxclass" : "bpatcher",
					"name" : "vz.sepr8r.maxpat",
					"numinlets" : 7,
					"numoutlets" : 1,
					"offset" : [ 0.0, 0.0 ],
					"outlettype" : [ "jit_gl_texture" ],
					"patching_rect" : [ 1058.0, 69.0, 268.0, 160.0 ],
					"prototypename" : "pixl",
					"varname" : "sepr8r",
					"viewvisibility" : 1
				}

			}
, 			{
				"box" : 				{
					"annotation" : "## A video delay line ##",
					"bgmode" : 1,
					"border" : 0,
					"clickthrough" : 0,
					"enablehscroll" : 0,
					"enablevscroll" : 0,
					"id" : "obj-31",
					"lockeddragscroll" : 0,
					"lockedsize" : 0,
					"maxclass" : "bpatcher",
					"name" : "vz.delayr.maxpat",
					"numinlets" : 4,
					"numoutlets" : 1,
					"offset" : [ 0.0, 0.0 ],
					"outlettype" : [ "jit_gl_texture" ],
					"patching_rect" : [ 735.0, 103.0, 188.0, 130.0 ],
					"prototypename" : "pixl",
					"varname" : "delayr",
					"viewvisibility" : 1
				}

			}
, 			{
				"box" : 				{
					"annotation" : "## Perform video gradient edge detection ##",
					"bgmode" : 1,
					"border" : 0,
					"clickthrough" : 0,
					"enablehscroll" : 0,
					"enablevscroll" : 0,
					"id" : "obj-35",
					"lockeddragscroll" : 0,
					"lockedsize" : 0,
					"maxclass" : "bpatcher",
					"name" : "vz.tracr.maxpat",
					"numinlets" : 3,
					"numoutlets" : 1,
					"offset" : [ 0.0, 0.0 ],
					"outlettype" : [ "jit_gl_texture" ],
					"patching_rect" : [ 650.0, 580.0, 148.0, 130.0 ],
					"prototypename" : "pixl",
					"varname" : "vz.tracr",
					"viewvisibility" : 1
				}

			}
, 			{
				"box" : 				{
					"enable" : 1,
					"erase_color" : [ 0.0, 0.0, 0.0, 1.0 ],
					"fps" : 30.0,
					"id" : "obj-30",
					"maxclass" : "jit.pworld",
					"numinlets" : 1,
					"numoutlets" : 2,
					"outlettype" : [ "jit_matrix", "" ],
					"patching_rect" : [ 832.0, 523.0, 189.0, 325.0 ],
					"sync" : 1
				}

			}
, 			{
				"box" : 				{
					"annotation" : "## Up/downsample a video ##",
					"bgmode" : 1,
					"border" : 0,
					"clickthrough" : 0,
					"enablehscroll" : 0,
					"enablevscroll" : 0,
					"id" : "obj-29",
					"lockeddragscroll" : 0,
					"lockedsize" : 0,
					"maxclass" : "bpatcher",
					"name" : "vz.zamplr.maxpat",
					"numinlets" : 6,
					"numoutlets" : 1,
					"offset" : [ 0.0, 0.0 ],
					"outlettype" : [ "jit_gl_texture" ],
					"patching_rect" : [ 1206.0, 252.0, 228.0, 130.0 ],
					"prototypename" : "pixl",
					"varname" : "zamplr",
					"viewvisibility" : 1
				}

			}
, 			{
				"box" : 				{
					"annotation" : "## Feed a video image back on itself ##",
					"bgmode" : 1,
					"border" : 0,
					"clickthrough" : 0,
					"enablehscroll" : 0,
					"enablevscroll" : 0,
					"id" : "obj-28",
					"lockeddragscroll" : 0,
					"lockedsize" : 0,
					"maxclass" : "bpatcher",
					"name" : "vz.feedr.maxpat",
					"numinlets" : 5,
					"numoutlets" : 1,
					"offset" : [ 0.0, 0.0 ],
					"outlettype" : [ "jit_gl_texture" ],
					"patching_rect" : [ 854.0, 282.0, 230.0, 130.0 ],
					"prototypename" : "pixl",
					"varname" : "feedr",
					"viewvisibility" : 1
				}

			}
, 			{
				"box" : 				{
					"enable" : 1,
					"erase_color" : [ 0.0, 0.0, 0.0, 1.0 ],
					"fps" : 30.0,
					"id" : "obj-22",
					"maxclass" : "jit.pworld",
					"numinlets" : 1,
					"numoutlets" : 2,
					"outlettype" : [ "jit_matrix", "" ],
					"patching_rect" : [ 1122.0, 512.5, 156.0, 286.0 ],
					"sync" : 1
				}

			}
, 			{
				"box" : 				{
					"annotation" : "## Smoothly crossfade between two videos and composite them ##",
					"bgmode" : 1,
					"border" : 0,
					"clickthrough" : 0,
					"enablehscroll" : 0,
					"enablevscroll" : 0,
					"id" : "obj-1",
					"lockeddragscroll" : 0,
					"lockedsize" : 0,
					"maxclass" : "bpatcher",
					"name" : "vz.mixfadr.maxpat",
					"numinlets" : 4,
					"numoutlets" : 1,
					"offset" : [ 0.0, 0.0 ],
					"outlettype" : [ "jit_gl_texture" ],
					"patching_rect" : [ 408.0, 658.0, 168.0, 130.0 ],
					"varname" : "mixfadr",
					"viewvisibility" : 1
				}

			}
, 			{
				"box" : 				{
					"id" : "obj-14",
					"maxclass" : "newobj",
					"numinlets" : 1,
					"numoutlets" : 0,
					"patching_rect" : [ 120.0, 246.0, 54.0, 22.0 ],
					"text" : "dict.print"
				}

			}
, 			{
				"box" : 				{
					"fontface" : 0,
					"fontname" : "Arial",
					"fontsize" : 12.0,
					"id" : "obj-13",
					"maxclass" : "jit.fpsgui",
					"mode" : 3,
					"numinlets" : 1,
					"numoutlets" : 2,
					"outlettype" : [ "", "" ],
					"patching_rect" : [ 528.0, 226.0, 80.0, 36.0 ]
				}

			}
, 			{
				"box" : 				{
					"id" : "obj-11",
					"maxclass" : "newobj",
					"numinlets" : 1,
					"numoutlets" : 1,
					"outlettype" : [ "bang" ],
					"patching_rect" : [ 224.0, 29.0, 58.0, 22.0 ],
					"text" : "loadbang"
				}

			}
, 			{
				"box" : 				{
					"id" : "obj-10",
					"items" : [ "HENDASHENG (OBS)", ",", "HENDASHENG (OBS Preview)" ],
					"maxclass" : "umenu",
					"numinlets" : 1,
					"numoutlets" : 3,
					"outlettype" : [ "int", "", "" ],
					"parameter_enable" : 0,
					"patching_rect" : [ 198.0, 246.0, 198.0, 22.0 ]
				}

			}
, 			{
				"box" : 				{
					"id" : "obj-9",
					"maxclass" : "newobj",
					"numinlets" : 3,
					"numoutlets" : 3,
					"outlettype" : [ "", "", "" ],
					"patching_rect" : [ 120.0, 200.0, 174.0, 22.0 ],
					"text" : "route sourcelist sourcelistmenu"
				}

			}
, 			{
				"box" : 				{
					"id" : "obj-18",
					"maxclass" : "message",
					"numinlets" : 2,
					"numoutlets" : 1,
					"outlettype" : [ "" ],
					"patching_rect" : [ 224.0, 77.0, 106.0, 22.0 ],
					"text" : "getsourcelistmenu"
				}

			}
, 			{
				"box" : 				{
					"id" : "obj-16",
					"maxclass" : "message",
					"numinlets" : 2,
					"numoutlets" : 1,
					"outlettype" : [ "" ],
					"patching_rect" : [ 134.0, 77.0, 76.0, 22.0 ],
					"text" : "getsourcelist"
				}

			}
, 			{
				"box" : 				{
					"enable" : 1,
					"erase_color" : [ 0.0, 0.0, 0.0, 1.0 ],
					"fps" : 30.0,
					"id" : "obj-6",
					"maxclass" : "jit.pworld",
					"numinlets" : 1,
					"numoutlets" : 2,
					"outlettype" : [ "jit_matrix", "" ],
					"patching_rect" : [ 408.0, 260.0, 200.0, 343.0 ],
					"sync" : 1
				}

			}
, 			{
				"box" : 				{
					"id" : "obj-5",
					"maxclass" : "newobj",
					"numinlets" : 1,
					"numoutlets" : 3,
					"outlettype" : [ "multichannelsignal", "jit_matrix", "" ],
					"patching_rect" : [ 43.0, 143.0, 96.0, 22.0 ],
					"text" : "jit.ndi.receive~ 2"
				}

			}
, 			{
				"box" : 				{
					"id" : "obj-4",
					"maxclass" : "toggle",
					"numinlets" : 1,
					"numoutlets" : 1,
					"outlettype" : [ "int" ],
					"parameter_enable" : 0,
					"patching_rect" : [ 43.0, 28.0, 24.0, 24.0 ],
					"svg" : ""
				}

			}
, 			{
				"box" : 				{
					"id" : "obj-2",
					"maxclass" : "newobj",
					"numinlets" : 2,
					"numoutlets" : 1,
					"outlettype" : [ "bang" ],
					"patching_rect" : [ 43.0, 77.0, 63.0, 22.0 ],
					"text" : "qmetro 30"
				}

			}
 ],
		"lines" : [ 			{
				"patchline" : 				{
					"destination" : [ "obj-5", 0 ],
					"midpoints" : [ 297.0, 291.0, 12.0, 291.0, 12.0, 114.0, 52.5, 114.0 ],
					"source" : [ "obj-10", 1 ]
				}

			}
, 			{
				"patchline" : 				{
					"destination" : [ "obj-16", 0 ],
					"midpoints" : [ 233.5, 60.0, 143.5, 60.0 ],
					"order" : 1,
					"source" : [ "obj-11", 0 ]
				}

			}
, 			{
				"patchline" : 				{
					"destination" : [ "obj-18", 0 ],
					"order" : 0,
					"source" : [ "obj-11", 0 ]
				}

			}
, 			{
				"patchline" : 				{
					"destination" : [ "obj-5", 0 ],
					"midpoints" : [ 143.5, 129.0, 52.5, 129.0 ],
					"source" : [ "obj-16", 0 ]
				}

			}
, 			{
				"patchline" : 				{
					"destination" : [ "obj-5", 0 ],
					"midpoints" : [ 233.5, 129.0, 52.5, 129.0 ],
					"source" : [ "obj-18", 0 ]
				}

			}
, 			{
				"patchline" : 				{
					"destination" : [ "obj-5", 0 ],
					"source" : [ "obj-2", 0 ]
				}

			}
, 			{
				"patchline" : 				{
					"destination" : [ "obj-22", 0 ],
					"source" : [ "obj-29", 0 ]
				}

			}
, 			{
				"patchline" : 				{
					"destination" : [ "obj-30", 0 ],
					"source" : [ "obj-33", 0 ]
				}

			}
, 			{
				"patchline" : 				{
					"destination" : [ "obj-2", 0 ],
					"source" : [ "obj-4", 0 ]
				}

			}
, 			{
				"patchline" : 				{
					"destination" : [ "obj-37", 0 ],
					"source" : [ "obj-49", 0 ]
				}

			}
, 			{
				"patchline" : 				{
					"destination" : [ "obj-13", 0 ],
					"midpoints" : [ 91.0, 177.0, 537.5, 177.0 ],
					"order" : 0,
					"source" : [ "obj-5", 1 ]
				}

			}
, 			{
				"patchline" : 				{
					"destination" : [ "obj-17", 0 ],
					"order" : 3,
					"source" : [ "obj-5", 1 ]
				}

			}
, 			{
				"patchline" : 				{
					"destination" : [ "obj-49", 0 ],
					"order" : 2,
					"source" : [ "obj-5", 1 ]
				}

			}
, 			{
				"patchline" : 				{
					"destination" : [ "obj-6", 0 ],
					"midpoints" : [ 91.0, 177.0, 417.5, 177.0 ],
					"order" : 1,
					"source" : [ "obj-5", 1 ]
				}

			}
, 			{
				"patchline" : 				{
					"destination" : [ "obj-7", 0 ],
					"order" : 4,
					"source" : [ "obj-5", 1 ]
				}

			}
, 			{
				"patchline" : 				{
					"destination" : [ "obj-9", 0 ],
					"source" : [ "obj-5", 2 ]
				}

			}
, 			{
				"patchline" : 				{
					"destination" : [ "obj-1", 0 ],
					"order" : 5,
					"source" : [ "obj-6", 0 ]
				}

			}
, 			{
				"patchline" : 				{
					"destination" : [ "obj-28", 0 ],
					"order" : 4,
					"source" : [ "obj-6", 0 ]
				}

			}
, 			{
				"patchline" : 				{
					"destination" : [ "obj-29", 0 ],
					"order" : 3,
					"source" : [ "obj-6", 0 ]
				}

			}
, 			{
				"patchline" : 				{
					"destination" : [ "obj-31", 0 ],
					"order" : 1,
					"source" : [ "obj-6", 0 ]
				}

			}
, 			{
				"patchline" : 				{
					"destination" : [ "obj-33", 0 ],
					"order" : 0,
					"source" : [ "obj-6", 0 ]
				}

			}
, 			{
				"patchline" : 				{
					"destination" : [ "obj-35", 0 ],
					"order" : 2,
					"source" : [ "obj-6", 0 ]
				}

			}
, 			{
				"patchline" : 				{
					"destination" : [ "obj-10", 0 ],
					"source" : [ "obj-9", 1 ]
				}

			}
, 			{
				"patchline" : 				{
					"destination" : [ "obj-14", 0 ],
					"source" : [ "obj-9", 0 ]
				}

			}
 ],
		"originid" : "pat-5",
		"parameters" : 		{
			"obj-17::obj-17" : [ "range[1]", "range", 0 ],
			"obj-17::obj-24" : [ "Y offset", "Y offset", 0 ],
			"obj-17::obj-41" : [ "pictctrl[93]", "pictctrl[1]", 0 ],
			"obj-17::obj-47" : [ "pictctrl[102]", "pictctrl[1]", 0 ],
			"obj-17::obj-51" : [ "pictctrl[10]", "pictctrl[1]", 0 ],
			"obj-17::obj-53" : [ "pictctrl[8]", "pictctrl[1]", 0 ],
			"obj-17::obj-54" : [ "Bound mode[1]", "Bound mode", 0 ],
			"obj-17::obj-56::obj-23" : [ "gswitch2[10]", "gswitch2", 0 ],
			"obj-17::obj-68" : [ "X offset", "X offset", 0 ],
			"obj-17::obj-94" : [ "Interp mode", "Interp mode", 0 ],
			"obj-1::obj-17::obj-23" : [ "gswitch2[3]", "gswitch2", 0 ],
			"obj-1::obj-21" : [ "range[19]", "range", 0 ],
			"obj-1::obj-24" : [ "pictctrl[98]", "pictctrl[1]", 0 ],
			"obj-1::obj-26" : [ "Crossfade", "Crossfade", 0 ],
			"obj-1::obj-39" : [ "Operator mode", "Operator mode", 0 ],
			"obj-1::obj-51" : [ "pictctrl[47]", "pictctrl[1]", 0 ],
			"obj-1::obj-56::obj-23" : [ "gswitch2[2]", "gswitch2", 0 ],
			"obj-28::obj-1" : [ "range[4]", "range", 0 ],
			"obj-28::obj-13" : [ "Feedback", "Feedback", 0 ],
			"obj-28::obj-26" : [ "pictctrl[7]", "pictctrl[1]", 0 ],
			"obj-28::obj-27" : [ "Feedforward", "Feedforward", 0 ],
			"obj-28::obj-32" : [ "pictctrl[4]", "pictctrl[1]", 0 ],
			"obj-28::obj-38" : [ "Bleed", "Bleed", 0 ],
			"obj-28::obj-39" : [ "Gain", "Gain", 0 ],
			"obj-28::obj-56::obj-23" : [ "gswitch2[4]", "gswitch2", 0 ],
			"obj-28::obj-7" : [ "pictctrl[5]", "pictctrl[1]", 0 ],
			"obj-28::obj-9" : [ "pictctrl[6]", "pictctrl[1]", 0 ],
			"obj-29::obj-100" : [ "Gain[3]", "Gain", 0 ],
			"obj-29::obj-101" : [ "Color mode", "Color mode", 0 ],
			"obj-29::obj-16" : [ "range[24]", "range", 0 ],
			"obj-29::obj-21" : [ "pictctrl[72]", "pictctrl[1]", 0 ],
			"obj-29::obj-28" : [ "pictctrl[71]", "pictctrl[1]", 0 ],
			"obj-29::obj-50" : [ "pictctrl[70]", "pictctrl[1]", 0 ],
			"obj-29::obj-56::obj-23" : [ "gswitch2[5]", "gswitch2", 0 ],
			"obj-29::obj-68" : [ "horizontal[3]", "horizontal", 0 ],
			"obj-29::obj-79" : [ "pictctrl[74]", "pictctrl[1]", 0 ],
			"obj-29::obj-94" : [ "Bound mode", "Bound mode", 0 ],
			"obj-29::obj-98" : [ "V offset", "V offset", 0 ],
			"obj-29::obj-99" : [ "H offset", "H offset", 0 ],
			"obj-31::obj-10" : [ "Feedback[1]", "Feedback", 0 ],
			"obj-31::obj-20" : [ "pictctrl[1]", "pictctrl[1]", 0 ],
			"obj-31::obj-24" : [ "Crossfade[1]", "Crossfade", 0 ],
			"obj-31::obj-48" : [ "pictctrl[2]", "pictctrl[2]", 0 ],
			"obj-31::obj-53" : [ "pictctrl", "pictctrl", 0 ],
			"obj-31::obj-56::obj-23" : [ "gswitch2[7]", "gswitch2", 0 ],
			"obj-31::obj-7" : [ "range[25]", "range", 0 ],
			"obj-31::obj-9" : [ "Delay", "Delay", 0 ],
			"obj-33::obj-10" : [ "Red X offset", "Red X offset", 0 ],
			"obj-33::obj-12" : [ "Red Y offset", "Red Y offset", 0 ],
			"obj-33::obj-14" : [ "Green X offset", "Green X offset", 0 ],
			"obj-33::obj-16" : [ "Green vertical offset", "Green vertical offset", 0 ],
			"obj-33::obj-18" : [ "Blue X offset", "Blue X offset", 0 ],
			"obj-33::obj-20" : [ "Bliue Y offset", "Bliue Y offset", 0 ],
			"obj-33::obj-23" : [ "textbutton", "textbutton", 0 ],
			"obj-33::obj-31::obj-23" : [ "gswitch2[8]", "gswitch2", 0 ],
			"obj-33::obj-36" : [ "live.toggle", "live.toggle", 0 ],
			"obj-33::obj-42" : [ "live.toggle[1]", "live.toggle[1]", 0 ],
			"obj-33::obj-48" : [ "live.toggle[2]", "live.toggle[2]", 0 ],
			"obj-33::obj-54" : [ "live.toggle[3]", "live.toggle[3]", 0 ],
			"obj-33::obj-59" : [ "live.toggle[4]", "live.toggle[4]", 0 ],
			"obj-33::obj-65" : [ "live.toggle[5]", "live.toggle[5]", 0 ],
			"obj-35::obj-16" : [ "range[3]", "range", 0 ],
			"obj-35::obj-47" : [ "pictctrl[21]", "pictctrl[1]", 0 ],
			"obj-35::obj-53" : [ "pictctrl[23]", "pictctrl[1]", 0 ],
			"obj-35::obj-54" : [ "Mode", "Mode", 0 ],
			"obj-35::obj-56::obj-23" : [ "gswitch2[6]", "gswitch2", 0 ],
			"obj-35::obj-7" : [ "Edge", "Edge", 0 ],
			"obj-49::obj-12" : [ "pictctrl[104]", "pictctrl[1]", 0 ],
			"obj-49::obj-27" : [ "Color 2", "Color 2", 0 ],
			"obj-49::obj-28" : [ "Color 1", "Color 1", 0 ],
			"obj-49::obj-3" : [ "range[27]", "range", 0 ],
			"obj-49::obj-45" : [ "Saturation 1", "Saturation 1", 0 ],
			"obj-49::obj-46" : [ "Saturation 2", "Saturation 2", 0 ],
			"obj-49::obj-49" : [ "pictctrl[9]", "pictctrl[1]", 0 ],
			"obj-49::obj-53" : [ "pictctrl[92]", "pictctrl[1]", 0 ],
			"obj-49::obj-54" : [ "pictctrl[109]", "pictctrl[1]", 0 ],
			"obj-49::obj-56::obj-23" : [ "gswitch2[12]", "gswitch2", 0 ],
			"obj-49::obj-58" : [ "pictctrl[3]", "pictctrl[1]", 0 ],
			"obj-49::obj-62" : [ "pictctrl[108]", "pictctrl[1]", 0 ],
			"obj-49::obj-64" : [ "pictctrl[107]", "pictctrl[1]", 0 ],
			"obj-49::obj-73" : [ "pictctrl[105]", "pictctrl[1]", 0 ],
			"obj-7::obj-24" : [ "range[23]", "range", 0 ],
			"obj-7::obj-33" : [ "pictctrl[67]", "pictctrl[1]", 0 ],
			"obj-7::obj-37" : [ "Vertical", "Vertical", 0 ],
			"obj-7::obj-39" : [ "pictctrl[68]", "pictctrl[1]", 0 ],
			"obj-7::obj-56::obj-23" : [ "gswitch2[9]", "gswitch2", 0 ],
			"obj-7::obj-68" : [ "Horizontal", "Horizontal", 0 ],
			"parameterbanks" : 			{

			}
,
			"parameter_overrides" : 			{
				"obj-17::obj-41" : 				{
					"parameter_longname" : "pictctrl[93]"
				}
,
				"obj-17::obj-47" : 				{
					"parameter_longname" : "pictctrl[102]"
				}
,
				"obj-17::obj-51" : 				{
					"parameter_longname" : "pictctrl[10]"
				}
,
				"obj-17::obj-54" : 				{
					"parameter_longname" : "Bound mode[1]"
				}
,
				"obj-29::obj-100" : 				{
					"parameter_longname" : "Gain[3]"
				}
,
				"obj-31::obj-10" : 				{
					"parameter_longname" : "Feedback[1]"
				}
,
				"obj-31::obj-24" : 				{
					"parameter_longname" : "Crossfade[1]"
				}
,
				"obj-49::obj-12" : 				{
					"parameter_longname" : "pictctrl[104]"
				}
,
				"obj-49::obj-53" : 				{
					"parameter_longname" : "pictctrl[92]"
				}
,
				"obj-49::obj-54" : 				{
					"parameter_longname" : "pictctrl[109]"
				}
,
				"obj-49::obj-62" : 				{
					"parameter_longname" : "pictctrl[108]"
				}
,
				"obj-49::obj-64" : 				{
					"parameter_longname" : "pictctrl[107]"
				}
,
				"obj-49::obj-73" : 				{
					"parameter_longname" : "pictctrl[105]"
				}

			}
,
			"inherited_shortname" : 1
		}
,
		"dependency_cache" : [ 			{
				"name" : "ameba.genjit",
				"bootpath" : "~/AppData/Roaming/Cycling '74/Max 9/examples/jitter-examples/gen",
				"patcherrelativepath" : "../../../AppData/Roaming/Cycling '74/Max 9/examples/jitter-examples/gen",
				"type" : "gJIT",
				"implicit" : 1
			}
, 			{
				"name" : "data-handler.maxpat",
				"bootpath" : "C74:/packages/vizzie/patchers/utils",
				"type" : "JSON",
				"implicit" : 1
			}
, 			{
				"name" : "exact_menu.maxpat",
				"bootpath" : "C74:/packages/vizzie/patchers/utils",
				"type" : "JSON",
				"implicit" : 1
			}
, 			{
				"name" : "jit.gl.textureset.js",
				"bootpath" : "~/AppData/Roaming/Cycling '74/Max 9/examples/jitter-examples/javascript/render",
				"patcherrelativepath" : "../../../AppData/Roaming/Cycling '74/Max 9/examples/jitter-examples/javascript/render",
				"type" : "TEXT",
				"implicit" : 1
			}
, 			{
				"name" : "jit.ndi.receive~.mxe64",
				"type" : "mx64"
			}
, 			{
				"name" : "rgb2luma.genjit",
				"bootpath" : "~/AppData/Roaming/Cycling '74/Max 9/examples/jitter-examples/gen",
				"patcherrelativepath" : "../../../AppData/Roaming/Cycling '74/Max 9/examples/jitter-examples/gen",
				"type" : "gJIT",
				"implicit" : 1
			}
, 			{
				"name" : "video-handler.maxpat",
				"bootpath" : "C74:/packages/vizzie/patchers/utils",
				"type" : "JSON",
				"implicit" : 1
			}
, 			{
				"name" : "vizzie-datatexconvert.js",
				"bootpath" : "C74:/packages/vizzie/code",
				"type" : "TEXT",
				"implicit" : 1
			}
, 			{
				"name" : "vizzie-global.js",
				"bootpath" : "C74:/packages/vizzie/code",
				"type" : "TEXT",
				"implicit" : 1
			}
, 			{
				"name" : "vz.2tonr.maxpat",
				"bootpath" : "C74:/packages/vizzie/patchers",
				"type" : "JSON",
				"implicit" : 1
			}
, 			{
				"name" : "vz.delayr.maxpat",
				"bootpath" : "C74:/packages/vizzie/patchers",
				"type" : "JSON",
				"implicit" : 1
			}
, 			{
				"name" : "vz.feedr.maxpat",
				"bootpath" : "C74:/packages/vizzie/patchers",
				"type" : "JSON",
				"implicit" : 1
			}
, 			{
				"name" : "vz.kaleidr.maxpat",
				"bootpath" : "C74:/packages/vizzie/patchers",
				"type" : "JSON",
				"implicit" : 1
			}
, 			{
				"name" : "vz.mixfadr.maxpat",
				"bootpath" : "C74:/packages/vizzie/patchers",
				"type" : "JSON",
				"implicit" : 1
			}
, 			{
				"name" : "vz.pixl8r.maxpat",
				"bootpath" : "C74:/packages/vizzie/patchers",
				"type" : "JSON",
				"implicit" : 1
			}
, 			{
				"name" : "vz.sepr8r.maxpat",
				"bootpath" : "C74:/packages/vizzie/patchers",
				"type" : "JSON",
				"implicit" : 1
			}
, 			{
				"name" : "vz.tracr.maxpat",
				"bootpath" : "C74:/packages/vizzie/patchers",
				"type" : "JSON",
				"implicit" : 1
			}
, 			{
				"name" : "vz.zamplr.maxpat",
				"bootpath" : "C74:/packages/vizzie/patchers",
				"type" : "JSON",
				"implicit" : 1
			}
, 			{
				"name" : "vzgl-disable.maxpat",
				"bootpath" : "C74:/packages/vizzie/patchers/utils",
				"type" : "JSON",
				"implicit" : 1
			}
, 			{
				"name" : "vzgl-object.maxpat",
				"bootpath" : "C74:/packages/vizzie/patchers/utils",
				"type" : "JSON",
				"implicit" : 1
			}
, 			{
				"name" : "vzgl-outputdim.maxpat",
				"bootpath" : "C74:/packages/vizzie/patchers/utils",
				"type" : "JSON",
				"implicit" : 1
			}
, 			{
				"name" : "vzgl-routegl.maxpat",
				"bootpath" : "C74:/packages/vizzie/patchers/utils",
				"type" : "JSON",
				"implicit" : 1
			}
, 			{
				"name" : "xfade.genjit",
				"bootpath" : "~/AppData/Roaming/Cycling '74/Max 9/examples/jitter-examples/gen",
				"patcherrelativepath" : "../../../AppData/Roaming/Cycling '74/Max 9/examples/jitter-examples/gen",
				"type" : "gJIT",
				"implicit" : 1
			}
 ],
		"autosave" : 0,
		"toolbaradditions" : [ "Vizzie" ]
	}

}
