{
	"patcher" : 	{
		"fileversion" : 1,
		"appversion" : 		{
			"major" : 9,
			"minor" : 0,
			"revision" : 4,
			"architecture" : "x64",
			"modernui" : 1
		}
,
		"classnamespace" : "box",
		"rect" : [ 985.0, 303.0, 1341.0, 862.0 ],
		"gridsize" : [ 15.0, 15.0 ],
		"boxes" : [ 			{
				"box" : 				{
					"color" : [ 0.596078431372549, 0.470588235294118, 1.0, 1.0 ],
					"id" : "obj-8",
					"maxclass" : "newobj",
					"numinlets" : 0,
					"numoutlets" : 1,
					"outlettype" : [ "" ],
					"patching_rect" : [ 910.0, 181.0, 35.0, 22.0 ],
					"text" : "r dim"
				}

			}
, 			{
				"box" : 				{
					"color" : [ 0.596078431372549, 0.470588235294118, 1.0, 1.0 ],
					"id" : "obj-5",
					"maxclass" : "newobj",
					"numinlets" : 1,
					"numoutlets" : 0,
					"patching_rect" : [ 228.0, 134.0, 37.0, 22.0 ],
					"text" : "s dim"
				}

			}
, 			{
				"box" : 				{
					"color" : [ 0.164705882352941, 0.796078431372549, 0.250980392156863, 1.0 ],
					"id" : "obj-4",
					"maxclass" : "newobj",
					"numinlets" : 0,
					"numoutlets" : 1,
					"outlettype" : [ "" ],
					"patching_rect" : [ 810.0, 181.0, 79.0, 22.0 ],
					"text" : "r renderBang"
				}

			}
, 			{
				"box" : 				{
					"color" : [ 0.164705882352941, 0.796078431372549, 0.250980392156863, 1.0 ],
					"id" : "obj-2",
					"maxclass" : "newobj",
					"numinlets" : 1,
					"numoutlets" : 0,
					"patching_rect" : [ 131.0, 228.0, 81.0, 22.0 ],
					"text" : "s renderBang"
				}

			}
, 			{
				"box" : 				{
					"id" : "obj-48",
					"maxclass" : "jit.pwindow",
					"numinlets" : 1,
					"numoutlets" : 2,
					"outlettype" : [ "jit_matrix", "" ],
					"patching_rect" : [ 810.0, 409.0, 181.0, 120.0 ],
					"sync" : 1
				}

			}
, 			{
				"box" : 				{
					"id" : "obj-44",
					"maxclass" : "newobj",
					"numinlets" : 1,
					"numoutlets" : 2,
					"outlettype" : [ "", "" ],
					"patching_rect" : [ 1073.0, 78.0, 43.0, 22.0 ],
					"text" : "jit.time"
				}

			}
, 			{
				"box" : 				{
					"attr" : "zoom",
					"id" : "obj-43",
					"maxclass" : "attrui",
					"numinlets" : 1,
					"numoutlets" : 1,
					"outlettype" : [ "" ],
					"parameter_enable" : 0,
					"patching_rect" : [ 1073.0, 162.0, 150.0, 22.0 ]
				}

			}
, 			{
				"box" : 				{
					"id" : "obj-42",
					"maxclass" : "button",
					"numinlets" : 1,
					"numoutlets" : 1,
					"outlettype" : [ "bang" ],
					"parameter_enable" : 0,
					"patching_rect" : [ 228.0, 38.0, 24.0, 24.0 ]
				}

			}
, 			{
				"box" : 				{
					"id" : "obj-7",
					"maxclass" : "newobj",
					"numinlets" : 1,
					"numoutlets" : 1,
					"outlettype" : [ "" ],
					"patching_rect" : [ 910.0, 219.0, 81.0, 22.0 ],
					"style" : "default",
					"text" : "prepend dim"
				}

			}
, 			{
				"box" : 				{
					"id" : "obj-6",
					"maxclass" : "newobj",
					"numinlets" : 1,
					"numoutlets" : 3,
					"outlettype" : [ "", "", "" ],
					"patching_rect" : [ 228.0, 82.0, 73.0, 22.0 ],
					"style" : "default",
					"text" : "getattr size"
				}

			}
, 			{
				"box" : 				{
					"id" : "obj-3",
					"maxclass" : "newobj",
					"numinlets" : 1,
					"numoutlets" : 2,
					"outlettype" : [ "jit_gl_texture", "" ],
					"patching_rect" : [ 810.0, 263.0, 135.0, 22.0 ],
					"style" : "default",
					"text" : "jit.gl.texture @adapt 0"
				}

			}
, 			{
				"box" : 				{
					"id" : "obj-40",
					"maxclass" : "jit.pwindow",
					"numinlets" : 1,
					"numoutlets" : 2,
					"outlettype" : [ "jit_matrix", "" ],
					"patching_rect" : [ 409.0, 590.0, 127.0, 93.0 ],
					"sync" : 1
				}

			}
, 			{
				"box" : 				{
					"id" : "obj-29",
					"maxclass" : "newobj",
					"numinlets" : 1,
					"numoutlets" : 2,
					"outlettype" : [ "jit_gl_texture", "" ],
					"patching_rect" : [ 810.0, 356.0, 117.0, 22.0 ],
					"text" : "jit.gl.bfg @colorize 1"
				}

			}
, 			{
				"box" : 				{
					"id" : "obj-39",
					"maxclass" : "message",
					"numinlets" : 2,
					"numoutlets" : 1,
					"outlettype" : [ "" ],
					"patching_rect" : [ 281.0, 189.0, 35.0, 22.0 ],
					"text" : "reset"
				}

			}
, 			{
				"box" : 				{
					"id" : "obj-37",
					"maxclass" : "newobj",
					"numinlets" : 1,
					"numoutlets" : 2,
					"outlettype" : [ "", "" ],
					"patching_rect" : [ 281.0, 228.0, 155.0, 22.0 ],
					"text" : "jit.gl.handle @auto_rotate 1"
				}

			}
, 			{
				"box" : 				{
					"id" : "obj-36",
					"maxclass" : "newobj",
					"numinlets" : 1,
					"numoutlets" : 2,
					"outlettype" : [ "jit_matrix", "" ],
					"patching_rect" : [ 368.0, 532.0, 125.0, 22.0 ],
					"text" : "jit.noise 4 float32 50 1"
				}

			}
, 			{
				"box" : 				{
					"id" : "obj-35",
					"maxclass" : "newobj",
					"numinlets" : 1,
					"numoutlets" : 1,
					"outlettype" : [ "" ],
					"patching_rect" : [ 436.0, 461.0, 76.0, 22.0 ],
					"text" : "prepend font"
				}

			}
, 			{
				"box" : 				{
					"id" : "obj-34",
					"maxclass" : "newobj",
					"numinlets" : 1,
					"numoutlets" : 1,
					"outlettype" : [ "" ],
					"patching_rect" : [ 436.0, 423.0, 57.0, 22.0 ],
					"text" : "tosymbol"
				}

			}
, 			{
				"box" : 				{
					"id" : "obj-33",
					"maxclass" : "button",
					"numinlets" : 1,
					"numoutlets" : 1,
					"outlettype" : [ "bang" ],
					"parameter_enable" : 0,
					"patching_rect" : [ 436.0, 302.0, 24.0, 24.0 ]
				}

			}
, 			{
				"box" : 				{
					"id" : "obj-31",
					"items" : [ "Ableton Sans ExtraLight", ",", "Ableton Sans ExtraLight Italic", ",", "Ableton Sans Light", ",", "Ableton Sans Light Italic", ",", "Ableton Sans", ",", "Ableton Sans Regular Italic", ",", "Ableton Sans Medium", ",", "Ableton Sans Medium Italic", ",", "Ableton Sans Bold", ",", "Ableton Sans Bold Italic", ",", "Ableton Sans Small", ",", "Ableton Sans Small Regular Italic", ",", "Ableton Sans Small Bold", ",", "Ableton Sans Small Bold Italic", ",", "AniMe Matrix - MB_EN", ",", "Arial", ",", "Arial Italic", ",", "Arial Bold", ",", "Arial Bold Italic", ",", "Arial Black", ",", "Bahnschrift Light", ",", "Bahnschrift Light Condensed", ",", "Bahnschrift Light SemiCondensed", ",", "Bahnschrift SemiLight", ",", "Bahnschrift SemiLight Condensed", ",", "Bahnschrift SemiLight SemiCondensed", ",", "Bahnschrift", ",", "Bahnschrift Condensed", ",", "Bahnschrift SemiCondensed", ",", "Bahnschrift SemiBold", ",", "Bahnschrift SemiBold Condensed", ",", "Bahnschrift SemiBold SemiCondensed", ",", "Bahnschrift Bold", ",", "Bahnschrift Bold Condensed", ",", "Bahnschrift Bold SemiCondensed", ",", "Calibri Light", ",", "Calibri Light Italic", ",", "Calibri", ",", "Calibri Italic", ",", "Calibri Bold", ",", "Calibri Bold Italic", ",", "Cambria", ",", "Cambria Italic", ",", "Cambria Bold", ",", "Cambria Bold Italic", ",", "Cambria Math", ",", "Candara Light", ",", "Candara Light Italic", ",", "Candara", ",", "Candara Italic", ",", "Candara Bold", ",", "Candara Bold Italic", ",", "Cascadia Code ExtraLight", ",", "Cascadia Code ExtraLight Italic", ",", "Cascadia Code Light", ",", "Cascadia Code Light Italic", ",", "Cascadia Code SemiLight", ",", "Cascadia Code SemiLight Italic", ",", "Cascadia Code", ",", "Cascadia Code Italic", ",", "Cascadia Code SemiBold", ",", "Cascadia Code SemiBold Italic", ",", "Cascadia Code Bold", ",", "Cascadia Code Bold Italic", ",", "Cascadia Mono ExtraLight", ",", "Cascadia Mono ExtraLight Italic", ",", "Cascadia Mono Light", ",", "Cascadia Mono Light Italic", ",", "Cascadia Mono SemiLight", ",", "Cascadia Mono SemiLight Italic", ",", "Cascadia Mono", ",", "Cascadia Mono Italic", ",", "Cascadia Mono SemiBold", ",", "Cascadia Mono SemiBold Italic", ",", "Cascadia Mono Bold", ",", "Cascadia Mono Bold Italic", ",", "CMU Bright Roman", ",", "Comic Sans MS", ",", "Comic Sans MS Italic", ",", "Comic Sans MS Bold", ",", "Comic Sans MS Bold Italic", ",", "Consolas", ",", "Consolas Italic", ",", "Consolas Bold", ",", "Consolas Bold Italic", ",", "Constantia", ",", "Constantia Italic", ",", "Constantia Bold", ",", "Constantia Bold Italic", ",", "Corbel Light", ",", "Corbel Light Italic", ",", "Corbel", ",", "Corbel Italic", ",", "Corbel Bold", ",", "Corbel Bold Italic", ",", "Courier New", ",", "Courier New Italic", ",", "Courier New Bold", ",", "Courier New Bold Italic", ",", "DengXian Light", ",", "DengXian", ",", "DengXian Bold", ",", "Ebrima", ",", "Ebrima Bold", ",", "FangSong", ",", "Franklin Gothic Medium", ",", "Franklin Gothic Medium Italic", ",", "Gabriola", ",", "Gadugi", ",", "Gadugi Bold", ",", "Georgia", ",", "Georgia Italic", ",", "Georgia Bold", ",", "Georgia Bold Italic", ",", "Impact", ",", "Ink Free", ",", "Javanese Text", ",", "KaiTi", ",", "Lato Thin", ",", "Lato Thin Italic", ",", "Lato Light", ",", "Lato Light Italic", ",", "Lato", ",", "Lato Italic", ",", "Lato Medium", ",", "Lato Medium Italic", ",", "Lato Semibold", ",", "Lato Semibold Italic", ",", "Lato Bold", ",", "Lato Bold Italic", ",", "Lato Heavy", ",", "Lato Heavy Italic", ",", "Lato Black", ",", "Lato Black Italic", ",", "Lato Hairline", ",", "Lato Hairline Italic", ",", "Leelawadee UI Semilight", ",", "Leelawadee UI", ",", "Leelawadee UI Bold", ",", "Lucida Console", ",", "Lucida Sans Unicode", ",", "Malgun Gothic Semilight", ",", "Malgun Gothic", ",", "Malgun Gothic Bold", ",", "Marlett", ",", "Microsoft Himalaya", ",", "Microsoft JhengHei Light", ",", "Microsoft JhengHei", ",", "Microsoft JhengHei Bold", ",", "Microsoft JhengHei UI Light", ",", "Microsoft JhengHei UI", ",", "Microsoft JhengHei UI Bold", ",", "Microsoft New Tai Lue", ",", "Microsoft New Tai Lue Bold", ",", "Microsoft PhagsPa", ",", "Microsoft PhagsPa Bold", ",", "Microsoft Sans Serif", ",", "Microsoft Tai Le", ",", "Microsoft Tai Le Bold", ",", "Microsoft YaHei Light", ",", "Microsoft YaHei", ",", "Microsoft YaHei Bold", ",", "Microsoft YaHei UI Light", ",", "Microsoft YaHei UI", ",", "Microsoft YaHei UI Bold", ",", "Microsoft Yi Baiti", ",", "MingLiU-ExtB", ",", "MingLiU_HKSCS-ExtB", ",", "MingLiU_MSCS-ExtB", ",", "Mongolian Baiti", ",", "MS Gothic", ",", "MS PGothic", ",", "MS UI Gothic", ",", "MV Boli", ",", "Myanmar Text", ",", "Myanmar Text Bold", ",", "Nirmala Text Semilight", ",", "Nirmala Text", ",", "Nirmala Text Bold", ",", "Nirmala UI Semilight", ",", "Nirmala UI", ",", "Nirmala UI Bold", ",", "NSimSun", ",", "Palatino Linotype", ",", "Palatino Linotype Italic", ",", "Palatino Linotype Bold", ",", "Palatino Linotype Bold Italic", ",", "PMingLiU-ExtB", ",", "ROG Fonts", ",", "Sans Serif Collection", ",", "Segoe Fluent Icons", ",", "Segoe MDL2 Assets", ",", "Segoe Print", ",", "Segoe Print Bold", ",", "Segoe Script", ",", "Segoe Script Bold", ",", "Segoe UI Light", ",", "Segoe UI Light Italic", ",", "Segoe UI Semilight", ",", "Segoe UI Semilight Italic", ",", "Segoe UI", ",", "Segoe UI Italic", ",", "Segoe UI Semibold", ",", "Segoe UI Semibold Italic", ",", "Segoe UI Bold", ",", "Segoe UI Bold Italic", ",", "Segoe UI Black", ",", "Segoe UI Black Italic", ",", "Segoe UI Emoji", ",", "Segoe UI Historic", ",", "Segoe UI Symbol", ",", "Segoe UI Variable Display Light", ",", "Segoe UI Variable Display Semilight", ",", "Segoe UI Variable Display", ",", "Segoe UI Variable Display Semibold", ",", "Segoe UI Variable Display Bold", ",", "Segoe UI Variable Small Light", ",", "Segoe UI Variable Small Semilight", ",", "Segoe UI Variable Small", ",", "Segoe UI Variable Small Semibold", ",", "Segoe UI Variable Small Bold", ",", "Segoe UI Variable Text Light", ",", "Segoe UI Variable Text Semilight", ",", "Segoe UI Variable Text", ",", "Segoe UI Variable Text Semibold", ",", "Segoe UI Variable Text Bold", ",", "SimHei", ",", "SimSun", ",", "SimSun-ExtB", ",", "SimSun-ExtG", ",", "Sitka Banner", ",", "Sitka Banner Italic", ",", "Sitka Banner Semibold", ",", "Sitka Banner Semibold Italic", ",", "Sitka Banner Bold", ",", "Sitka Banner Bold Italic", ",", "Sitka Display", ",", "Sitka Display Italic", ",", "Sitka Display Semibold", ",", "Sitka Display Semibold Italic", ",", "Sitka Display Bold", ",", "Sitka Display Bold Italic", ",", "Sitka Heading", ",", "Sitka Heading Italic", ",", "Sitka Heading Semibold", ",", "Sitka Heading Semibold Italic", ",", "Sitka Heading Bold", ",", "Sitka Heading Bold Italic", ",", "Sitka Small", ",", "Sitka Small Italic", ",", "Sitka Small Semibold", ",", "Sitka Small Semibold Italic", ",", "Sitka Small Bold", ",", "Sitka Small Bold Italic", ",", "Sitka Subheading", ",", "Sitka Subheading Italic", ",", "Sitka Subheading Semibold", ",", "Sitka Subheading Semibold Italic", ",", "Sitka Subheading Bold", ",", "Sitka Subheading Bold Italic", ",", "Sitka Text", ",", "Sitka Text Italic", ",", "Sitka Text Semibold", ",", "Sitka Text Semibold Italic", ",", "Sitka Text Bold", ",", "Sitka Text Bold Italic", ",", "Source Han Sans SC ExtraLight", ",", "Source Han Sans SC Light", ",", "Source Han Sans SC Normal", ",", "Source Han Sans SC", ",", "Source Han Sans SC Medium", ",", "Source Han Sans SC Bold", ",", "Source Han Sans SC Heavy", ",", "Sylfaen", ",", "Symbol", ",", "Tahoma", ",", "Tahoma Bold", ",", "Times New Roman", ",", "Times New Roman Italic", ",", "Times New Roman Bold", ",", "Times New Roman Bold Italic", ",", "Trebuchet MS", ",", "Trebuchet MS Italic", ",", "Trebuchet MS Bold", ",", "Trebuchet MS Bold Italic", ",", "Verdana", ",", "Verdana Italic", ",", "Verdana Bold", ",", "Verdana Bold Italic", ",", "Webdings", ",", "Wingdings", ",", "Yu Gothic Light", ",", "Yu Gothic", ",", "Yu Gothic Medium", ",", "Yu Gothic Bold", ",", "Yu Gothic UI Light", ",", "Yu Gothic UI Semilight", ",", "Yu Gothic UI", ",", "Yu Gothic UI Semibold", ",", "Yu Gothic UI Bold" ],
					"maxclass" : "umenu",
					"numinlets" : 1,
					"numoutlets" : 3,
					"outlettype" : [ "int", "", "" ],
					"parameter_enable" : 0,
					"patching_rect" : [ 436.0, 383.0, 100.0, 22.0 ]
				}

			}
, 			{
				"box" : 				{
					"id" : "obj-30",
					"maxclass" : "newobj",
					"numinlets" : 1,
					"numoutlets" : 1,
					"outlettype" : [ "" ],
					"patching_rect" : [ 436.0, 344.0, 43.0, 22.0 ],
					"text" : "fontlist"
				}

			}
, 			{
				"box" : 				{
					"id" : "obj-27",
					"maxclass" : "newobj",
					"numinlets" : 4,
					"numoutlets" : 1,
					"outlettype" : [ "" ],
					"patching_rect" : [ 80.0, 590.0, 307.0, 22.0 ],
					"text" : "jit.gl.textmult 4 @glparams position scale rotatexyz color"
				}

			}
, 			{
				"box" : 				{
					"id" : "obj-26",
					"maxclass" : "message",
					"numinlets" : 2,
					"numoutlets" : 1,
					"outlettype" : [ "" ],
					"patching_rect" : [ 80.0, 461.0, 88.0, 22.0 ],
					"text" : "dim $1 1, bang"
				}

			}
, 			{
				"box" : 				{
					"id" : "obj-24",
					"maxclass" : "newobj",
					"numinlets" : 1,
					"numoutlets" : 1,
					"outlettype" : [ "" ],
					"patching_rect" : [ 204.0, 461.0, 75.0, 22.0 ],
					"text" : "prepend text"
				}

			}
, 			{
				"box" : 				{
					"id" : "obj-23",
					"maxclass" : "textbutton",
					"numinlets" : 1,
					"numoutlets" : 3,
					"outlettype" : [ "", "", "int" ],
					"parameter_enable" : 0,
					"patching_rect" : [ 80.0, 370.0, 100.0, 20.0 ],
					"text" : "Number"
				}

			}
, 			{
				"box" : 				{
					"id" : "obj-22",
					"maxclass" : "textbutton",
					"numinlets" : 1,
					"numoutlets" : 3,
					"outlettype" : [ "", "", "int" ],
					"parameter_enable" : 0,
					"patching_rect" : [ 204.0, 370.0, 100.0, 20.0 ],
					"text" : "Texts"
				}

			}
, 			{
				"box" : 				{
					"id" : "obj-21",
					"maxclass" : "newobj",
					"numinlets" : 1,
					"numoutlets" : 3,
					"outlettype" : [ "jit_matrix", "jit_matrix", "jit_matrix" ],
					"patcher" : 					{
						"fileversion" : 1,
						"appversion" : 						{
							"major" : 9,
							"minor" : 0,
							"revision" : 4,
							"architecture" : "x64",
							"modernui" : 1
						}
,
						"classnamespace" : "box",
						"rect" : [ 1346.0, 423.0, 715.0, 780.0 ],
						"gridsize" : [ 15.0, 15.0 ],
						"boxes" : [ 							{
								"box" : 								{
									"id" : "obj-11",
									"maxclass" : "newobj",
									"numinlets" : 2,
									"numoutlets" : 4,
									"outlettype" : [ "jit_matrix", "jit_matrix", "jit_matrix", "" ],
									"patcher" : 									{
										"fileversion" : 1,
										"appversion" : 										{
											"major" : 9,
											"minor" : 0,
											"revision" : 4,
											"architecture" : "x64",
											"modernui" : 1
										}
,
										"classnamespace" : "jit.gen",
										"rect" : [ 1586.0, 787.0, 600.0, 450.0 ],
										"gridsize" : [ 15.0, 15.0 ],
										"boxes" : [ 											{
												"box" : 												{
													"id" : "obj-14",
													"maxclass" : "newobj",
													"numinlets" : 1,
													"numoutlets" : 1,
													"outlettype" : [ "" ],
													"patching_rect" : [ 256.0, 158.0, 42.0, 22.0 ],
													"text" : "+ time"
												}

											}
, 											{
												"box" : 												{
													"id" : "obj-13",
													"maxclass" : "newobj",
													"numinlets" : 1,
													"numoutlets" : 1,
													"outlettype" : [ "" ],
													"patching_rect" : [ 256.0, 108.0, 37.0, 22.0 ],
													"text" : "* 360"
												}

											}
, 											{
												"box" : 												{
													"id" : "obj-12",
													"maxclass" : "newobj",
													"numinlets" : 1,
													"numoutlets" : 0,
													"patching_rect" : [ 256.0, 242.0, 35.0, 22.0 ],
													"text" : "out 3"
												}

											}
, 											{
												"box" : 												{
													"id" : "obj-11",
													"maxclass" : "newobj",
													"numinlets" : 1,
													"numoutlets" : 1,
													"outlettype" : [ "" ],
													"patching_rect" : [ 165.0, 158.0, 36.0, 22.0 ],
													"text" : "+ 0.2"
												}

											}
, 											{
												"box" : 												{
													"id" : "obj-10",
													"maxclass" : "newobj",
													"numinlets" : 1,
													"numoutlets" : 1,
													"outlettype" : [ "" ],
													"patching_rect" : [ 165.0, 109.0, 41.0, 22.0 ],
													"text" : "swiz x"
												}

											}
, 											{
												"box" : 												{
													"id" : "obj-9",
													"maxclass" : "newobj",
													"numinlets" : 1,
													"numoutlets" : 1,
													"outlettype" : [ "" ],
													"patching_rect" : [ 48.0, 158.0, 49.0, 22.0 ],
													"text" : "* radius"
												}

											}
, 											{
												"box" : 												{
													"id" : "obj-8",
													"maxclass" : "newobj",
													"numinlets" : 2,
													"numoutlets" : 1,
													"outlettype" : [ "" ],
													"patching_rect" : [ 48.0, 108.0, 81.0, 22.0 ],
													"text" : "scale 0 1 -1 1"
												}

											}
, 											{
												"box" : 												{
													"id" : "obj-7",
													"maxclass" : "newobj",
													"numinlets" : 0,
													"numoutlets" : 1,
													"outlettype" : [ "" ],
													"patching_rect" : [ 386.0, 68.0, 79.0, 22.0 ],
													"text" : "param time 0"
												}

											}
, 											{
												"box" : 												{
													"id" : "obj-6",
													"maxclass" : "newobj",
													"numinlets" : 0,
													"numoutlets" : 1,
													"outlettype" : [ "" ],
													"patching_rect" : [ 386.0, 31.0, 89.0, 22.0 ],
													"text" : "param radius 2"
												}

											}
, 											{
												"box" : 												{
													"id" : "obj-5",
													"maxclass" : "newobj",
													"numinlets" : 1,
													"numoutlets" : 0,
													"patching_rect" : [ 165.0, 242.0, 35.0, 22.0 ],
													"text" : "out 2"
												}

											}
, 											{
												"box" : 												{
													"id" : "obj-1",
													"maxclass" : "newobj",
													"numinlets" : 0,
													"numoutlets" : 1,
													"outlettype" : [ "" ],
													"patching_rect" : [ 48.0, 31.0, 28.0, 22.0 ],
													"text" : "in 1"
												}

											}
, 											{
												"box" : 												{
													"id" : "obj-2",
													"maxclass" : "newobj",
													"numinlets" : 0,
													"numoutlets" : 1,
													"outlettype" : [ "" ],
													"patching_rect" : [ 165.0, 31.0, 28.0, 22.0 ],
													"text" : "in 2"
												}

											}
, 											{
												"box" : 												{
													"id" : "obj-4",
													"maxclass" : "newobj",
													"numinlets" : 1,
													"numoutlets" : 0,
													"patching_rect" : [ 48.0, 242.0, 35.0, 22.0 ],
													"text" : "out 1"
												}

											}
 ],
										"lines" : [ 											{
												"patchline" : 												{
													"destination" : [ "obj-13", 0 ],
													"order" : 0,
													"source" : [ "obj-1", 0 ]
												}

											}
, 											{
												"patchline" : 												{
													"destination" : [ "obj-8", 0 ],
													"order" : 1,
													"source" : [ "obj-1", 0 ]
												}

											}
, 											{
												"patchline" : 												{
													"destination" : [ "obj-11", 0 ],
													"source" : [ "obj-10", 0 ]
												}

											}
, 											{
												"patchline" : 												{
													"destination" : [ "obj-5", 0 ],
													"source" : [ "obj-11", 0 ]
												}

											}
, 											{
												"patchline" : 												{
													"destination" : [ "obj-14", 0 ],
													"source" : [ "obj-13", 0 ]
												}

											}
, 											{
												"patchline" : 												{
													"destination" : [ "obj-12", 0 ],
													"source" : [ "obj-14", 0 ]
												}

											}
, 											{
												"patchline" : 												{
													"destination" : [ "obj-10", 0 ],
													"source" : [ "obj-2", 0 ]
												}

											}
, 											{
												"patchline" : 												{
													"destination" : [ "obj-9", 0 ],
													"source" : [ "obj-8", 0 ]
												}

											}
, 											{
												"patchline" : 												{
													"destination" : [ "obj-4", 0 ],
													"source" : [ "obj-9", 0 ]
												}

											}
 ],
										"originid" : "pat-48"
									}
,
									"patching_rect" : [ 135.0, 367.0, 163.0, 22.0 ],
									"text" : "jit.gen"
								}

							}
, 							{
								"box" : 								{
									"id" : "obj-10",
									"maxclass" : "newobj",
									"numinlets" : 1,
									"numoutlets" : 2,
									"outlettype" : [ "jit_matrix", "" ],
									"patching_rect" : [ 135.0, 299.0, 53.0, 22.0 ],
									"text" : "jit.matrix"
								}

							}
, 							{
								"box" : 								{
									"comment" : "",
									"id" : "obj-9",
									"index" : 3,
									"maxclass" : "outlet",
									"numinlets" : 1,
									"numoutlets" : 0,
									"patching_rect" : [ 231.0, 439.0, 30.0, 30.0 ]
								}

							}
, 							{
								"box" : 								{
									"comment" : "",
									"id" : "obj-8",
									"index" : 2,
									"maxclass" : "outlet",
									"numinlets" : 1,
									"numoutlets" : 0,
									"patching_rect" : [ 183.0, 439.0, 30.0, 30.0 ]
								}

							}
, 							{
								"box" : 								{
									"id" : "obj-7",
									"maxclass" : "newobj",
									"numinlets" : 1,
									"numoutlets" : 2,
									"outlettype" : [ "bang", "" ],
									"patching_rect" : [ 436.0, 246.0, 29.5, 22.0 ],
									"text" : "t b l"
								}

							}
, 							{
								"box" : 								{
									"id" : "obj-6",
									"maxclass" : "newobj",
									"numinlets" : 1,
									"numoutlets" : 1,
									"outlettype" : [ "" ],
									"patching_rect" : [ 436.0, 201.0, 79.0, 22.0 ],
									"text" : "prepend time"
								}

							}
, 							{
								"box" : 								{
									"id" : "obj-5",
									"maxclass" : "newobj",
									"numinlets" : 1,
									"numoutlets" : 2,
									"outlettype" : [ "", "" ],
									"patching_rect" : [ 436.0, 152.0, 164.0, 22.0 ],
									"text" : "jit.time @speed 10 @start 10"
								}

							}
, 							{
								"box" : 								{
									"id" : "obj-4",
									"maxclass" : "newobj",
									"numinlets" : 1,
									"numoutlets" : 2,
									"outlettype" : [ "jit_matrix", "" ],
									"patching_rect" : [ 279.0, 152.0, 125.0, 22.0 ],
									"text" : "jit.noise 4 float32 50 1"
								}

							}
, 							{
								"box" : 								{
									"id" : "obj-3",
									"maxclass" : "newobj",
									"numinlets" : 1,
									"numoutlets" : 2,
									"outlettype" : [ "jit_matrix", "" ],
									"patching_rect" : [ 135.0, 152.0, 125.0, 22.0 ],
									"text" : "jit.noise 4 float32 50 1"
								}

							}
, 							{
								"box" : 								{
									"comment" : "",
									"id" : "obj-2",
									"index" : 1,
									"maxclass" : "outlet",
									"numinlets" : 1,
									"numoutlets" : 0,
									"patching_rect" : [ 135.0, 439.0, 30.0, 30.0 ]
								}

							}
, 							{
								"box" : 								{
									"comment" : "",
									"id" : "obj-1",
									"index" : 1,
									"maxclass" : "inlet",
									"numinlets" : 0,
									"numoutlets" : 1,
									"outlettype" : [ "" ],
									"patching_rect" : [ 135.0, 91.0, 30.0, 30.0 ]
								}

							}
 ],
						"lines" : [ 							{
								"patchline" : 								{
									"destination" : [ "obj-3", 0 ],
									"order" : 1,
									"source" : [ "obj-1", 0 ]
								}

							}
, 							{
								"patchline" : 								{
									"destination" : [ "obj-4", 0 ],
									"order" : 0,
									"source" : [ "obj-1", 0 ]
								}

							}
, 							{
								"patchline" : 								{
									"destination" : [ "obj-11", 0 ],
									"source" : [ "obj-10", 0 ]
								}

							}
, 							{
								"patchline" : 								{
									"destination" : [ "obj-2", 0 ],
									"source" : [ "obj-11", 0 ]
								}

							}
, 							{
								"patchline" : 								{
									"destination" : [ "obj-8", 0 ],
									"source" : [ "obj-11", 1 ]
								}

							}
, 							{
								"patchline" : 								{
									"destination" : [ "obj-9", 0 ],
									"source" : [ "obj-11", 2 ]
								}

							}
, 							{
								"patchline" : 								{
									"destination" : [ "obj-10", 0 ],
									"source" : [ "obj-3", 0 ]
								}

							}
, 							{
								"patchline" : 								{
									"destination" : [ "obj-11", 1 ],
									"source" : [ "obj-4", 0 ]
								}

							}
, 							{
								"patchline" : 								{
									"destination" : [ "obj-6", 0 ],
									"source" : [ "obj-5", 0 ]
								}

							}
, 							{
								"patchline" : 								{
									"destination" : [ "obj-7", 0 ],
									"source" : [ "obj-6", 0 ]
								}

							}
, 							{
								"patchline" : 								{
									"destination" : [ "obj-10", 0 ],
									"source" : [ "obj-7", 0 ]
								}

							}
, 							{
								"patchline" : 								{
									"destination" : [ "obj-11", 0 ],
									"source" : [ "obj-7", 1 ]
								}

							}
 ],
						"originid" : "pat-46"
					}
,
					"patching_rect" : [ 80.0, 532.0, 211.0, 22.0 ],
					"saved_object_attributes" : 					{
						"globalpatchername" : ""
					}
,
					"text" : "p generate_motion"
				}

			}
, 			{
				"box" : 				{
					"id" : "obj-14",
					"maxclass" : "newobj",
					"numinlets" : 2,
					"numoutlets" : 2,
					"outlettype" : [ "int", "" ],
					"patcher" : 					{
						"fileversion" : 1,
						"appversion" : 						{
							"major" : 9,
							"minor" : 0,
							"revision" : 4,
							"architecture" : "x64",
							"modernui" : 1
						}
,
						"classnamespace" : "box",
						"rect" : [ 153.0, 208.0, 1000.0, 780.0 ],
						"gridsize" : [ 15.0, 15.0 ],
						"boxes" : [ 							{
								"box" : 								{
									"comment" : "",
									"id" : "obj-15",
									"index" : 2,
									"maxclass" : "outlet",
									"numinlets" : 1,
									"numoutlets" : 0,
									"patching_rect" : [ 461.0, 651.0, 30.0, 30.0 ]
								}

							}
, 							{
								"box" : 								{
									"comment" : "",
									"id" : "obj-14",
									"index" : 1,
									"maxclass" : "outlet",
									"numinlets" : 1,
									"numoutlets" : 0,
									"patching_rect" : [ 211.0, 651.0, 30.0, 30.0 ]
								}

							}
, 							{
								"box" : 								{
									"id" : "obj-12",
									"maxclass" : "message",
									"numinlets" : 2,
									"numoutlets" : 1,
									"outlettype" : [ "" ],
									"patching_rect" : [ 461.0, 331.0, 65.0, 22.0 ],
									"text" : "Hello Jitter"
								}

							}
, 							{
								"box" : 								{
									"id" : "obj-10",
									"maxclass" : "newobj",
									"numinlets" : 2,
									"numoutlets" : 2,
									"outlettype" : [ "", "" ],
									"patching_rect" : [ 396.0, 429.0, 37.0, 22.0 ],
									"text" : "zl.len"
								}

							}
, 							{
								"box" : 								{
									"comment" : "",
									"id" : "obj-9",
									"index" : 2,
									"maxclass" : "inlet",
									"numinlets" : 0,
									"numoutlets" : 1,
									"outlettype" : [ "" ],
									"patching_rect" : [ 461.0, 273.0, 30.0, 30.0 ]
								}

							}
, 							{
								"box" : 								{
									"id" : "obj-8",
									"maxclass" : "newobj",
									"numinlets" : 2,
									"numoutlets" : 2,
									"outlettype" : [ "", "" ],
									"patching_rect" : [ 281.000000000000057, 519.0, 105.0, 22.0 ],
									"text" : "zl 1000 group 100"
								}

							}
, 							{
								"box" : 								{
									"id" : "obj-7",
									"maxclass" : "newobj",
									"numinlets" : 1,
									"numoutlets" : 4,
									"outlettype" : [ "int", "bang", "int", "int" ],
									"patching_rect" : [ 210.999999999999972, 429.0, 124.000000000000114, 22.0 ],
									"text" : "t i b i i"
								}

							}
, 							{
								"box" : 								{
									"id" : "obj-6",
									"maxclass" : "newobj",
									"numinlets" : 2,
									"numoutlets" : 3,
									"outlettype" : [ "bang", "bang", "int" ],
									"patching_rect" : [ 246.0, 471.0, 54.000000000000057, 22.0 ],
									"text" : "Uzi"
								}

							}
, 							{
								"box" : 								{
									"id" : "obj-5",
									"maxclass" : "message",
									"numinlets" : 2,
									"numoutlets" : 1,
									"outlettype" : [ "" ],
									"patching_rect" : [ 211.0, 331.0, 29.5, 22.0 ],
									"text" : "100"
								}

							}
, 							{
								"box" : 								{
									"id" : "obj-3",
									"maxclass" : "number",
									"numinlets" : 1,
									"numoutlets" : 2,
									"outlettype" : [ "", "bang" ],
									"parameter_enable" : 0,
									"patching_rect" : [ 211.0, 378.0, 50.0, 22.0 ]
								}

							}
, 							{
								"box" : 								{
									"comment" : "",
									"id" : "obj-1",
									"index" : 1,
									"maxclass" : "inlet",
									"numinlets" : 0,
									"numoutlets" : 1,
									"outlettype" : [ "" ],
									"patching_rect" : [ 211.0, 267.0, 30.0, 30.0 ]
								}

							}
 ],
						"lines" : [ 							{
								"patchline" : 								{
									"destination" : [ "obj-5", 0 ],
									"source" : [ "obj-1", 0 ]
								}

							}
, 							{
								"patchline" : 								{
									"destination" : [ "obj-14", 0 ],
									"source" : [ "obj-10", 0 ]
								}

							}
, 							{
								"patchline" : 								{
									"destination" : [ "obj-10", 0 ],
									"order" : 1,
									"source" : [ "obj-12", 0 ]
								}

							}
, 							{
								"patchline" : 								{
									"destination" : [ "obj-15", 0 ],
									"order" : 0,
									"source" : [ "obj-12", 0 ]
								}

							}
, 							{
								"patchline" : 								{
									"destination" : [ "obj-7", 0 ],
									"source" : [ "obj-3", 0 ]
								}

							}
, 							{
								"patchline" : 								{
									"destination" : [ "obj-3", 0 ],
									"source" : [ "obj-5", 0 ]
								}

							}
, 							{
								"patchline" : 								{
									"destination" : [ "obj-8", 0 ],
									"source" : [ "obj-6", 2 ]
								}

							}
, 							{
								"patchline" : 								{
									"destination" : [ "obj-14", 0 ],
									"source" : [ "obj-7", 0 ]
								}

							}
, 							{
								"patchline" : 								{
									"destination" : [ "obj-6", 1 ],
									"source" : [ "obj-7", 2 ]
								}

							}
, 							{
								"patchline" : 								{
									"destination" : [ "obj-6", 0 ],
									"source" : [ "obj-7", 1 ]
								}

							}
, 							{
								"patchline" : 								{
									"destination" : [ "obj-8", 1 ],
									"source" : [ "obj-7", 3 ]
								}

							}
, 							{
								"patchline" : 								{
									"destination" : [ "obj-15", 0 ],
									"source" : [ "obj-8", 0 ]
								}

							}
, 							{
								"patchline" : 								{
									"destination" : [ "obj-12", 0 ],
									"source" : [ "obj-9", 0 ]
								}

							}
 ],
						"originid" : "pat-50"
					}
,
					"patching_rect" : [ 80.0, 419.0, 143.0, 22.0 ],
					"saved_object_attributes" : 					{
						"globalpatchername" : ""
					}
,
					"text" : "p generate_text"
				}

			}
, 			{
				"box" : 				{
					"fontface" : 0,
					"fontname" : "Arial",
					"fontsize" : 12.0,
					"id" : "obj-13",
					"maxclass" : "jit.fpsgui",
					"numinlets" : 1,
					"numoutlets" : 2,
					"outlettype" : [ "", "" ],
					"patching_rect" : [ 131.0, 175.0, 80.0, 36.0 ]
				}

			}
, 			{
				"box" : 				{
					"id" : "obj-11",
					"maxclass" : "newobj",
					"numinlets" : 1,
					"numoutlets" : 3,
					"outlettype" : [ "jit_matrix", "bang", "" ],
					"patching_rect" : [ 80.0, 134.0, 121.0, 22.0 ],
					"text" : "jit.world geo @fsaa 1"
				}

			}
, 			{
				"box" : 				{
					"id" : "obj-9",
					"maxclass" : "toggle",
					"numinlets" : 1,
					"numoutlets" : 1,
					"outlettype" : [ "int" ],
					"parameter_enable" : 0,
					"patching_rect" : [ 80.0, 81.0, 24.0, 24.0 ],
					"svg" : ""
				}

			}
, 			{
				"box" : 				{
					"attr" : "basis",
					"id" : "obj-38",
					"maxclass" : "attrui",
					"numinlets" : 1,
					"numoutlets" : 1,
					"outlettype" : [ "" ],
					"parameter_enable" : 0,
					"patching_rect" : [ 1073.0, 138.0, 150.0, 22.0 ]
				}

			}
, 			{
				"box" : 				{
					"attr" : "speed",
					"id" : "obj-45",
					"maxclass" : "attrui",
					"numinlets" : 1,
					"numoutlets" : 1,
					"outlettype" : [ "" ],
					"parameter_enable" : 0,
					"patching_rect" : [ 1073.0, 35.0, 150.0, 22.0 ]
				}

			}
, 			{
				"box" : 				{
					"attr" : "time",
					"id" : "obj-46",
					"maxclass" : "attrui",
					"numinlets" : 1,
					"numoutlets" : 1,
					"outlettype" : [ "" ],
					"parameter_enable" : 0,
					"patching_rect" : [ 1073.0, 116.0, 150.0, 22.0 ]
				}

			}
, 			{
				"box" : 				{
					"attr" : "palette",
					"id" : "obj-47",
					"maxclass" : "attrui",
					"numinlets" : 1,
					"numoutlets" : 1,
					"outlettype" : [ "" ],
					"parameter_enable" : 0,
					"patching_rect" : [ 1073.0, 201.0, 237.0, 22.0 ]
				}

			}
, 			{
				"box" : 				{
					"attr" : "scale",
					"id" : "obj-49",
					"maxclass" : "attrui",
					"numinlets" : 1,
					"numoutlets" : 1,
					"outlettype" : [ "" ],
					"parameter_enable" : 0,
					"patching_rect" : [ 1073.0, 225.0, 237.0, 22.0 ]
				}

			}
, 			{
				"box" : 				{
					"attr" : "enable",
					"id" : "obj-50",
					"maxclass" : "attrui",
					"numinlets" : 1,
					"numoutlets" : 1,
					"outlettype" : [ "" ],
					"parameter_enable" : 0,
					"patching_rect" : [ 1073.0, 263.0, 150.0, 22.0 ]
				}

			}
 ],
		"lines" : [ 			{
				"patchline" : 				{
					"destination" : [ "obj-13", 0 ],
					"order" : 1,
					"source" : [ "obj-11", 1 ]
				}

			}
, 			{
				"patchline" : 				{
					"destination" : [ "obj-2", 0 ],
					"order" : 0,
					"source" : [ "obj-11", 1 ]
				}

			}
, 			{
				"patchline" : 				{
					"destination" : [ "obj-24", 0 ],
					"source" : [ "obj-14", 1 ]
				}

			}
, 			{
				"patchline" : 				{
					"destination" : [ "obj-26", 0 ],
					"source" : [ "obj-14", 0 ]
				}

			}
, 			{
				"patchline" : 				{
					"destination" : [ "obj-27", 2 ],
					"source" : [ "obj-21", 2 ]
				}

			}
, 			{
				"patchline" : 				{
					"destination" : [ "obj-27", 1 ],
					"source" : [ "obj-21", 1 ]
				}

			}
, 			{
				"patchline" : 				{
					"destination" : [ "obj-27", 0 ],
					"source" : [ "obj-21", 0 ]
				}

			}
, 			{
				"patchline" : 				{
					"destination" : [ "obj-14", 1 ],
					"source" : [ "obj-22", 0 ]
				}

			}
, 			{
				"patchline" : 				{
					"destination" : [ "obj-14", 0 ],
					"source" : [ "obj-23", 0 ]
				}

			}
, 			{
				"patchline" : 				{
					"destination" : [ "obj-27", 0 ],
					"midpoints" : [ 213.5, 519.0, 66.0, 519.0, 66.0, 576.0, 89.5, 576.0 ],
					"source" : [ "obj-24", 0 ]
				}

			}
, 			{
				"patchline" : 				{
					"destination" : [ "obj-21", 0 ],
					"order" : 1,
					"source" : [ "obj-26", 0 ]
				}

			}
, 			{
				"patchline" : 				{
					"destination" : [ "obj-36", 0 ],
					"midpoints" : [ 89.5, 519.0, 377.5, 519.0 ],
					"order" : 0,
					"source" : [ "obj-26", 0 ]
				}

			}
, 			{
				"patchline" : 				{
					"destination" : [ "obj-48", 0 ],
					"source" : [ "obj-29", 0 ]
				}

			}
, 			{
				"patchline" : 				{
					"destination" : [ "obj-29", 0 ],
					"source" : [ "obj-3", 0 ]
				}

			}
, 			{
				"patchline" : 				{
					"destination" : [ "obj-31", 0 ],
					"source" : [ "obj-30", 0 ]
				}

			}
, 			{
				"patchline" : 				{
					"destination" : [ "obj-34", 0 ],
					"source" : [ "obj-31", 0 ]
				}

			}
, 			{
				"patchline" : 				{
					"destination" : [ "obj-30", 0 ],
					"source" : [ "obj-33", 0 ]
				}

			}
, 			{
				"patchline" : 				{
					"destination" : [ "obj-35", 0 ],
					"source" : [ "obj-34", 0 ]
				}

			}
, 			{
				"patchline" : 				{
					"destination" : [ "obj-27", 0 ],
					"midpoints" : [ 445.5, 519.0, 303.0, 519.0, 303.0, 576.0, 89.5, 576.0 ],
					"source" : [ "obj-35", 0 ]
				}

			}
, 			{
				"patchline" : 				{
					"destination" : [ "obj-27", 3 ],
					"order" : 1,
					"source" : [ "obj-36", 0 ]
				}

			}
, 			{
				"patchline" : 				{
					"destination" : [ "obj-40", 0 ],
					"order" : 0,
					"source" : [ "obj-36", 0 ]
				}

			}
, 			{
				"patchline" : 				{
					"destination" : [ "obj-27", 0 ],
					"source" : [ "obj-37", 0 ]
				}

			}
, 			{
				"patchline" : 				{
					"destination" : [ "obj-29", 0 ],
					"midpoints" : [ 1082.5, 161.0, 1002.0, 161.0, 1002.0, 341.0, 819.5, 341.0 ],
					"source" : [ "obj-38", 0 ]
				}

			}
, 			{
				"patchline" : 				{
					"destination" : [ "obj-37", 0 ],
					"source" : [ "obj-39", 0 ]
				}

			}
, 			{
				"patchline" : 				{
					"destination" : [ "obj-3", 0 ],
					"source" : [ "obj-4", 0 ]
				}

			}
, 			{
				"patchline" : 				{
					"destination" : [ "obj-6", 0 ],
					"source" : [ "obj-42", 0 ]
				}

			}
, 			{
				"patchline" : 				{
					"destination" : [ "obj-29", 0 ],
					"midpoints" : [ 1082.5, 185.0, 1002.0, 185.0, 1002.0, 341.0, 819.5, 341.0 ],
					"source" : [ "obj-43", 0 ]
				}

			}
, 			{
				"patchline" : 				{
					"destination" : [ "obj-46", 0 ],
					"source" : [ "obj-44", 0 ]
				}

			}
, 			{
				"patchline" : 				{
					"destination" : [ "obj-44", 0 ],
					"source" : [ "obj-45", 0 ]
				}

			}
, 			{
				"patchline" : 				{
					"destination" : [ "obj-29", 0 ],
					"midpoints" : [ 1082.5, 140.0, 1002.0, 140.0, 1002.0, 341.0, 819.5, 341.0 ],
					"source" : [ "obj-46", 0 ]
				}

			}
, 			{
				"patchline" : 				{
					"destination" : [ "obj-29", 0 ],
					"midpoints" : [ 1082.5, 224.0, 1002.0, 224.0, 1002.0, 341.0, 819.5, 341.0 ],
					"source" : [ "obj-47", 0 ]
				}

			}
, 			{
				"patchline" : 				{
					"destination" : [ "obj-29", 0 ],
					"midpoints" : [ 1082.5, 248.0, 1002.0, 248.0, 1002.0, 341.0, 819.5, 341.0 ],
					"source" : [ "obj-49", 0 ]
				}

			}
, 			{
				"patchline" : 				{
					"destination" : [ "obj-29", 0 ],
					"midpoints" : [ 1082.5, 341.0, 819.5, 341.0 ],
					"source" : [ "obj-50", 0 ]
				}

			}
, 			{
				"patchline" : 				{
					"destination" : [ "obj-11", 0 ],
					"source" : [ "obj-6", 1 ]
				}

			}
, 			{
				"patchline" : 				{
					"destination" : [ "obj-5", 0 ],
					"source" : [ "obj-6", 0 ]
				}

			}
, 			{
				"patchline" : 				{
					"destination" : [ "obj-3", 0 ],
					"source" : [ "obj-7", 0 ]
				}

			}
, 			{
				"patchline" : 				{
					"destination" : [ "obj-7", 0 ],
					"source" : [ "obj-8", 0 ]
				}

			}
, 			{
				"patchline" : 				{
					"destination" : [ "obj-11", 0 ],
					"source" : [ "obj-9", 0 ]
				}

			}
 ],
		"originid" : "pat-40",
		"dependency_cache" : [ 			{
				"name" : "jit.gl.textmult.maxpat",
				"bootpath" : "C74:/packages/Jitter Tools/patchers/abstractions",
				"type" : "JSON",
				"implicit" : 1
			}
, 			{
				"name" : "multiple_text.js",
				"bootpath" : "C74:/packages/Jitter Tools/javascript/textmultiple",
				"type" : "TEXT",
				"implicit" : 1
			}
 ],
		"autosave" : 0
	}

}
