{
	"patcher" : 	{
		"fileversion" : 1,
		"appversion" : 		{
			"major" : 9,
			"minor" : 0,
			"revision" : 3,
			"architecture" : "x64",
			"modernui" : 1
		}
,
		"classnamespace" : "box",
		"rect" : [ 557.0, 321.0, 1000.0, 862.0 ],
		"gridsize" : [ 15.0, 15.0 ],
		"boxes" : [ 			{
				"box" : 				{
					"id" : "obj-39",
					"maxclass" : "message",
					"numinlets" : 2,
					"numoutlets" : 1,
					"outlettype" : [ "" ],
					"patching_rect" : [ 832.0, 430.0, 35.0, 22.0 ],
					"text" : "reset"
				}

			}
, 			{
				"box" : 				{
					"id" : "obj-37",
					"maxclass" : "newobj",
					"numinlets" : 1,
					"numoutlets" : 2,
					"outlettype" : [ "", "" ],
					"patching_rect" : [ 778.0, 469.0, 69.0, 22.0 ],
					"text" : "jit.gl.handle"
				}

			}
, 			{
				"box" : 				{
					"id" : "obj-36",
					"maxclass" : "newobj",
					"numinlets" : 1,
					"numoutlets" : 2,
					"outlettype" : [ "jit_matrix", "" ],
					"patching_rect" : [ 567.0, 487.0, 125.0, 22.0 ],
					"text" : "jit.noise 4 float32 50 1"
				}

			}
, 			{
				"box" : 				{
					"id" : "obj-35",
					"maxclass" : "newobj",
					"numinlets" : 1,
					"numoutlets" : 1,
					"outlettype" : [ "" ],
					"patching_rect" : [ 574.0, 364.0, 76.0, 22.0 ],
					"text" : "prepend font"
				}

			}
, 			{
				"box" : 				{
					"id" : "obj-34",
					"maxclass" : "newobj",
					"numinlets" : 1,
					"numoutlets" : 1,
					"outlettype" : [ "" ],
					"patching_rect" : [ 576.0, 312.0, 57.0, 22.0 ],
					"text" : "tosymbol"
				}

			}
, 			{
				"box" : 				{
					"id" : "obj-33",
					"maxclass" : "button",
					"numinlets" : 1,
					"numoutlets" : 1,
					"outlettype" : [ "bang" ],
					"parameter_enable" : 0,
					"patching_rect" : [ 550.0, 138.0, 24.0, 24.0 ]
				}

			}
, 			{
				"box" : 				{
					"id" : "obj-31",
					"items" : [ "Ableton Sans ExtraLight", ",", "Ableton Sans ExtraLight Italic", ",", "Ableton Sans Light", ",", "Ableton Sans Light Italic", ",", "Ableton Sans", ",", "Ableton Sans Regular Italic", ",", "Ableton Sans Medium", ",", "Ableton Sans Medium Italic", ",", "Ableton Sans Bold", ",", "Ableton Sans Bold Italic", ",", "Ableton Sans Small", ",", "Ableton Sans Small Regular Italic", ",", "Ableton Sans Small Bold", ",", "Ableton Sans Small Bold Italic", ",", "Adobe Song Std L", ",", "Arial", ",", "Arial Narrow", ",", "Arial Italic", ",", "Arial Narrow Italic", ",", "Arial Bold", ",", "Arial Narrow Bold", ",", "Arial Bold Italic", ",", "Arial Narrow Bold Italic", ",", "Arial Black", ",", "Bahnschrift Light", ",", "Bahnschrift Light Condensed", ",", "Bahnschrift Light SemiCondensed", ",", "Bahnschrift SemiLight", ",", "Bahnschrift SemiLight Condensed", ",", "Bahnschrift SemiLight SemiCondensed", ",", "Bahnschrift", ",", "Bahnschrift Condensed", ",", "Bahnschrift SemiCondensed", ",", "Bahnschrift SemiBold", ",", "Bahnschrift SemiBold Condensed", ",", "Bahnschrift SemiBold SemiCondensed", ",", "Bahnschrift Bold", ",", "Bahnschrift Bold Condensed", ",", "Bahnschrift Bold SemiCondensed", ",", "Book Antiqua", ",", "Book Antiqua Italic", ",", "Book Antiqua Bold", ",", "Book Antiqua Bold Italic", ",", "Bookman Old Style", ",", "Bookman Old Style Italic", ",", "Bookman Old Style Bold", ",", "Bookman Old Style Bold Italic", ",", "Bookshelf Symbol 7", ",", "Calibri Light", ",", "Calibri Light Italic", ",", "Calibri", ",", "Calibri Italic", ",", "Calibri Bold", ",", "Calibri Bold Italic", ",", "Cambria", ",", "Cambria Italic", ",", "Cambria Bold", ",", "Cambria Bold Italic", ",", "Cambria Math", ",", "Candara Light", ",", "Candara Light Italic", ",", "Candara", ",", "Candara Italic", ",", "Candara Bold", ",", "Candara Bold Italic", ",", "Cascadia Code ExtraLight", ",", "Cascadia Code ExtraLight Italic", ",", "Cascadia Code Light", ",", "Cascadia Code Light Italic", ",", "Cascadia Code SemiLight", ",", "Cascadia Code SemiLight Italic", ",", "Cascadia Code", ",", "Cascadia Code Italic", ",", "Cascadia Code SemiBold", ",", "Cascadia Code SemiBold Italic", ",", "Cascadia Code Bold", ",", "Cascadia Code Bold Italic", ",", "Cascadia Mono ExtraLight", ",", "Cascadia Mono ExtraLight Italic", ",", "Cascadia Mono Light", ",", "Cascadia Mono Light Italic", ",", "Cascadia Mono SemiLight", ",", "Cascadia Mono SemiLight Italic", ",", "Cascadia Mono", ",", "Cascadia Mono Italic", ",", "Cascadia Mono SemiBold", ",", "Cascadia Mono SemiBold Italic", ",", "Cascadia Mono Bold", ",", "Cascadia Mono Bold Italic", ",", "Century", ",", "Century Gothic", ",", "Century Gothic Italic", ",", "Century Gothic Bold", ",", "Century Gothic Bold Italic", ",", "Comic Sans MS", ",", "Comic Sans MS Italic", ",", "Comic Sans MS Bold", ",", "Comic Sans MS Bold Italic", ",", "Consolas", ",", "Consolas Italic", ",", "Consolas Bold", ",", "Consolas Bold Italic", ",", "Constantia", ",", "Constantia Italic", ",", "Constantia Bold", ",", "Constantia Bold Italic", ",", "Corbel Light", ",", "Corbel Light Italic", ",", "Corbel", ",", "Corbel Italic", ",", "Corbel Bold", ",", "Corbel Bold Italic", ",", "Courier New", ",", "Courier New Italic", ",", "Courier New Bold", ",", "Courier New Bold Italic", ",", "DengXian Light", ",", "DengXian", ",", "DengXian Bold", ",", "Dubai Light", ",", "Dubai", ",", "Dubai Medium", ",", "Dubai Bold", ",", "Ebrima", ",", "Ebrima Bold", ",", "FangSong", ",", "Founders Grotesk Condensed Semibold", ",", "Franklin Gothic Medium", ",", "Franklin Gothic Medium Italic", ",", "FZShuTi", ",", "FZYaoTi", ",", "Gabriola", ",", "Gadugi", ",", "Gadugi Bold", ",", "Garamond", ",", "Garamond Italic", ",", "Garamond Bold", ",", "Georgia", ",", "Georgia Italic", ",", "Georgia Bold", ",", "Georgia Bold Italic", ",", "Helvetica Condensed Thin", ",", "Helvetica", ",", "Helvetica Condensed", ",", "Helvetica Narrow", ",", "Helvetica Oblique", ",", "Helvetica Narrow Oblique", ",", "Helvetica Condensed Italic", ",", "Helvetica Narrow Medium", ",", "Helvetica Bold", ",", "Helvetica Condensed Bold", ",", "Helvetica Narrow Bold", ",", "Helvetica Bold Oblique", ",", "Helvetica Narrow Bold Oblique", ",", "Helvetica Condensed Bold Italic", ",", "Helvetica BoldOblique Narrow Medium", ",", "Helvetica Lefty Narrow Medium", ",", "Helvetica Lefty Narrow Bold", ",", "Helvetica Li Condensed Light", ",", "Helvetica Light Condensed Light", ",", "Helvetica Neue", ",", "Helvetica Neue UltraLight", ",", "Helvetica Neue UltraLight Italic", ",", "Helvetica Neue 45 Light", ",", "Helvetica Neue Light", ",", "Helvetica Neue Light Condensed", ",", "Helvetica Neue Light Italic", ",", "Helvetica Neue Italic", ",", "Helvetica Neue 65 Medium", ",", "Helvetica Neue 67 Medium Condensed", ",", "Helvetica Neue 67 Medium Condensed Oblique", ",", "Helvetica Neue Condensed Bold", ",", "Helvetica Neue Bold Italic", ",", "Helvetica Neue 97 Black Condensed", ",", "Helvetica Neue Condensed Black", ",", "Helvetica Neue 97 Black Condensed Oblique", ",", "Helvetica Neue Black Italic", ",", "Helvetica Se Condensed Black", ",", "Helvetica-Black SemiBold", ",", "Helvetica-BoldOblique", ",", "Helvetica-Conth", ",", "Helvetica-Light Light Italic", ",", "Helvetica-Roman-SemiB", ",", "HelveticaExt-Normal", ",", "HelveticaExtObl Light", ",", "HelveticaExtObl Heavy", ",", "HelveticaExtObl-Normal", ",", "HelveticaInserat-Roman SemiBold", ",", "HelveticaInserat-Roman-SemiB", ",", "HelveticaObl Thin", ",", "HelveticaObl Heavy", ",", "HoloLens MDL2 Assets", ",", "HYQiHei 65S", ",", "Impact", ",", "Inconsolata ExtraLight", ",", "Inconsolata Light", ",", "Inconsolata", ",", "Inconsolata Medium", ",", "Inconsolata SemiBold", ",", "Inconsolata Bold", ",", "Inconsolata ExtraBold", ",", "Inconsolata Black", ",", "Inconsolata Condensed Condensed ExtraLight", ",", "Inconsolata Condensed Condensed Light", ",", "Inconsolata Condensed Condensed", ",", "Inconsolata Condensed Condensed Medium", ",", "Inconsolata Condensed Condensed SemiBold", ",", "Inconsolata Condensed Condensed Bold", ",", "Inconsolata Condensed Condensed ExtraBold", ",", "Inconsolata Condensed Condensed Black", ",", "Inconsolata Expanded Expanded ExtraLight", ",", "Inconsolata Expanded Expanded Light", ",", "Inconsolata Expanded Expanded", ",", "Inconsolata Expanded Expanded Medium", ",", "Inconsolata Expanded Expanded SemiBold", ",", "Inconsolata Expanded Expanded Bold", ",", "Inconsolata Expanded Expanded ExtraBold", ",", "Inconsolata Expanded Expanded Black", ",", "Inconsolata ExtraCondensed ExtraCondensed ExtraLight", ",", "Inconsolata ExtraCondensed ExtraCondensed Light", ",", "Inconsolata ExtraCondensed ExtraCondensed", ",", "Inconsolata ExtraCondensed ExtraCondensed Medium", ",", "Inconsolata ExtraCondensed ExtraCondensed SemiBold", ",", "Inconsolata ExtraCondensed ExtraCondensed Bold", ",", "Inconsolata ExtraCondensed ExtraCondensed ExtraBold", ",", "Inconsolata ExtraCondensed ExtraCondensed Black", ",", "Inconsolata ExtraExpanded ExtraExpanded ExtraLight", ",", "Inconsolata ExtraExpanded ExtraExpanded Light", ",", "Inconsolata ExtraExpanded ExtraExpanded", ",", "Inconsolata ExtraExpanded ExtraExpanded Medium", ",", "Inconsolata ExtraExpanded ExtraExpanded SemiBold", ",", "Inconsolata ExtraExpanded ExtraExpanded Bold", ",", "Inconsolata ExtraExpanded ExtraExpanded ExtraBold", ",", "Inconsolata ExtraExpanded ExtraExpanded Black", ",", "Inconsolata SemiCondensed SemiCondensed ExtraLight", ",", "Inconsolata SemiCondensed SemiCondensed Light", ",", "Inconsolata SemiCondensed SemiCondensed", ",", "Inconsolata SemiCondensed SemiCondensed Medium", ",", "Inconsolata SemiCondensed SemiCondensed SemiBold", ",", "Inconsolata SemiCondensed SemiCondensed Bold", ",", "Inconsolata SemiCondensed SemiCondensed ExtraBold", ",", "Inconsolata SemiCondensed SemiCondensed Black", ",", "Inconsolata SemiExpanded SemiExpanded ExtraLight", ",", "Inconsolata SemiExpanded SemiExpanded Light", ",", "Inconsolata SemiExpanded SemiExpanded", ",", "Inconsolata SemiExpanded SemiExpanded Medium", ",", "Inconsolata SemiExpanded SemiExpanded SemiBold", ",", "Inconsolata SemiExpanded SemiExpanded Bold", ",", "Inconsolata SemiExpanded SemiExpanded ExtraBold", ",", "Inconsolata SemiExpanded SemiExpanded Black", ",", "Inconsolata UltraCondensed UltraCondensed ExtraLight", ",", "Inconsolata UltraCondensed UltraCondensed Light", ",", "Inconsolata UltraCondensed UltraCondensed", ",", "Inconsolata UltraCondensed UltraCondensed Medium", ",", "Inconsolata UltraCondensed UltraCondensed SemiBold", ",", "Inconsolata UltraCondensed UltraCondensed Bold", ",", "Inconsolata UltraCondensed UltraCondensed ExtraBold", ",", "Inconsolata UltraCondensed UltraCondensed Black", ",", "Inconsolata UltraExpanded UltraExpanded ExtraLight", ",", "Inconsolata UltraExpanded UltraExpanded Light", ",", "Inconsolata UltraExpanded UltraExpanded", ",", "Inconsolata UltraExpanded UltraExpanded Medium", ",", "Inconsolata UltraExpanded UltraExpanded SemiBold", ",", "Inconsolata UltraExpanded UltraExpanded Bold", ",", "Inconsolata UltraExpanded UltraExpanded ExtraBold", ",", "Inconsolata UltraExpanded UltraExpanded Black", ",", "Ink Free", ",", "Javanese Text", ",", "KaiTi", ",", "Kiblind Normal", ",", "Kiblind Semi-Condensed", ",", "Lato Thin", ",", "Lato Thin Italic", ",", "Lato Light", ",", "Lato Light Italic", ",", "Lato", ",", "Lato Italic", ",", "Lato Medium", ",", "Lato Medium Italic", ",", "Lato Semibold", ",", "Lato Semibold Italic", ",", "Lato Bold", ",", "Lato Bold Italic", ",", "Lato Heavy", ",", "Lato Heavy Italic", ",", "Lato Black", ",", "Lato Black Italic", ",", "Lato Hairline", ",", "Lato Hairline Italic", ",", "Leelawadee", ",", "Leelawadee Bold", ",", "Leelawadee UI Semilight", ",", "Leelawadee UI", ",", "Leelawadee UI Bold", ",", "LiSu", ",", "Lucida Console", ",", "Lucida Sans Unicode", ",", "Malgun Gothic Semilight", ",", "Malgun Gothic", ",", "Malgun Gothic Bold", ",", "Marlett", ",", "Microsoft Himalaya", ",", "Microsoft JhengHei Light", ",", "Microsoft JhengHei", ",", "Microsoft JhengHei Bold", ",", "Microsoft JhengHei UI Light", ",", "Microsoft JhengHei UI", ",", "Microsoft JhengHei UI Bold", ",", "Microsoft New Tai Lue", ",", "Microsoft New Tai Lue Bold", ",", "Microsoft PhagsPa", ",", "Microsoft PhagsPa Bold", ",", "Microsoft Sans Serif", ",", "Microsoft Tai Le", ",", "Microsoft Tai Le Bold", ",", "Microsoft Uighur", ",", "Microsoft Uighur Bold", ",", "Microsoft YaHei Light", ",", "Microsoft YaHei", ",", "Microsoft YaHei Bold", ",", "Microsoft YaHei UI Light", ",", "Microsoft YaHei UI", ",", "Microsoft YaHei UI Bold", ",", "Microsoft Yi Baiti", ",", "MingLiU-ExtB", ",", "MingLiU_HKSCS-ExtB", ",", "Mongolian Baiti", ",", "Monotype Corsiva", ",", "MS Gothic", ",", "MS PGothic", ",", "MS Reference Sans Serif", ",", "MS Reference Specialty", ",", "MS UI Gothic", ",", "MT Extra", ",", "MV Boli", ",", "Myanmar Text", ",", "Myanmar Text Bold", ",", "Nirmala UI Semilight", ",", "Nirmala UI", ",", "Nirmala UI Bold", ",", "Noto Sans SC Thin", ",", "Noto Sans SC ExtraLight", ",", "Noto Sans SC Light", ",", "Noto Sans SC", ",", "Noto Sans SC Medium", ",", "Noto Sans SC SemiBold", ",", "Noto Sans SC Bold", ",", "Noto Sans SC ExtraBold", ",", "Noto Sans SC Black", ",", "NSimSun", ",", "Palatino Linotype", ",", "Palatino Linotype Italic", ",", "Palatino Linotype Bold", ",", "Palatino Linotype Bold Italic", ",", "PMingLiU-ExtB", ",", "Sans Serif Collection", ",", "Segoe Fluent Icons", ",", "Segoe MDL2 Assets", ",", "Segoe Print", ",", "Segoe Print Bold", ",", "Segoe Script", ",", "Segoe Script Bold", ",", "Segoe UI Light", ",", "Segoe UI Light Italic", ",", "Segoe UI Semilight", ",", "Segoe UI Semilight Italic", ",", "Segoe UI", ",", "Segoe UI Italic", ",", "Segoe UI Semibold", ",", "Segoe UI Semibold Italic", ",", "Segoe UI Bold", ",", "Segoe UI Bold Italic", ",", "Segoe UI Black", ",", "Segoe UI Black Italic", ",", "Segoe UI Emoji", ",", "Segoe UI Historic", ",", "Segoe UI Symbol", ",", "Segoe UI Variable Display Light", ",", "Segoe UI Variable Display Semilight", ",", "Segoe UI Variable Display", ",", "Segoe UI Variable Display Semibold", ",", "Segoe UI Variable Display Bold", ",", "Segoe UI Variable Small Light", ",", "Segoe UI Variable Small Semilight", ",", "Segoe UI Variable Small", ",", "Segoe UI Variable Small Semibold", ",", "Segoe UI Variable Small Bold", ",", "Segoe UI Variable Text Light", ",", "Segoe UI Variable Text Semilight", ",", "Segoe UI Variable Text", ",", "Segoe UI Variable Text Semibold", ",", "Segoe UI Variable Text Bold", ",", "SimHei", ",", "SimSun", ",", "SimSun-ExtB", ",", "SimSun-ExtG", ",", "Sitka Banner", ",", "Sitka Banner Italic", ",", "Sitka Banner Semibold", ",", "Sitka Banner Semibold Italic", ",", "Sitka Banner Bold", ",", "Sitka Banner Bold Italic", ",", "Sitka Display", ",", "Sitka Display Italic", ",", "Sitka Display Semibold", ",", "Sitka Display Semibold Italic", ",", "Sitka Display Bold", ",", "Sitka Display Bold Italic", ",", "Sitka Heading", ",", "Sitka Heading Italic", ",", "Sitka Heading Semibold", ",", "Sitka Heading Semibold Italic", ",", "Sitka Heading Bold", ",", "Sitka Heading Bold Italic", ",", "Sitka Small", ",", "Sitka Small Italic", ",", "Sitka Small Semibold", ",", "Sitka Small Semibold Italic", ",", "Sitka Small Bold", ",", "Sitka Small Bold Italic", ",", "Sitka Subheading", ",", "Sitka Subheading Italic", ",", "Sitka Subheading Semibold", ",", "Sitka Subheading Semibold Italic", ",", "Sitka Subheading Bold", ",", "Sitka Subheading Bold Italic", ",", "Sitka Text", ",", "Sitka Text Italic", ",", "Sitka Text Semibold", ",", "Sitka Text Semibold Italic", ",", "Sitka Text Bold", ",", "Sitka Text Bold Italic", ",", "Smiley Sans Oblique", ",", "Source Han Sans CN ExtraLight", ",", "Source Han Sans CN Light", ",", "Source Han Sans CN Normal", ",", "Source Han Sans CN", ",", "Source Han Sans CN Medium", ",", "Source Han Sans CN Bold", ",", "Source Han Sans CN Heavy", ",", "Source Han Sans SC VF ExtraLight", ",", "Source Han Sans SC VF Light", ",", "Source Han Sans SC VF Normal", ",", "Source Han Sans SC VF", ",", "Source Han Sans SC VF Medium", ",", "Source Han Sans SC VF Bold", ",", "Source Han Sans SC VF Heavy", ",", "Source Han Serif SC VF ExtraLight", ",", "Source Han Serif SC VF Light", ",", "Source Han Serif SC VF", ",", "Source Han Serif SC VF Medium", ",", "Source Han Serif SC VF SemiBold", ",", "Source Han Serif SC VF Bold", ",", "Source Han Serif SC VF Heavy", ",", "STCaiyun", ",", "STFangsong", ",", "STHupo", ",", "STKaiti", ",", "STLiti", ",", "STSong", ",", "STXihei", ",", "STXingkai", ",", "STXinwei", ",", "STZhongsong", ",", "Sylfaen", ",", "Symbol", ",", "Tahoma", ",", "Tahoma Bold", ",", "Times New Roman", ",", "Times New Roman Italic", ",", "Times New Roman Bold", ",", "Times New Roman Bold Italic", ",", "Trebuchet MS", ",", "Trebuchet MS Italic", ",", "Trebuchet MS Bold", ",", "Trebuchet MS Bold Italic", ",", "Verdana", ",", "Verdana Italic", ",", "Verdana Bold", ",", "Verdana Bold Italic", ",", "Webdings", ",", "Wingdings", ",", "Wingdings 2", ",", "Wingdings 3", ",", "YouYuan", ",", "Yu Gothic Light", ",", "Yu Gothic", ",", "Yu Gothic Medium", ",", "Yu Gothic Bold", ",", "Yu Gothic UI Light", ",", "Yu Gothic UI Semilight", ",", "Yu Gothic UI", ",", "Yu Gothic UI Semibold", ",", "Yu Gothic UI Bold" ],
					"maxclass" : "umenu",
					"numinlets" : 1,
					"numoutlets" : 3,
					"outlettype" : [ "int", "", "" ],
					"parameter_enable" : 0,
					"patching_rect" : [ 550.0, 248.0, 100.0, 22.0 ]
				}

			}
, 			{
				"box" : 				{
					"id" : "obj-30",
					"maxclass" : "newobj",
					"numinlets" : 1,
					"numoutlets" : 1,
					"outlettype" : [ "" ],
					"patching_rect" : [ 550.0, 197.0, 43.0, 22.0 ],
					"text" : "fontlist"
				}

			}
, 			{
				"box" : 				{
					"id" : "obj-27",
					"maxclass" : "newobj",
					"numinlets" : 4,
					"numoutlets" : 1,
					"outlettype" : [ "" ],
					"patching_rect" : [ 279.0, 545.0, 307.0, 22.0 ],
					"text" : "jit.gl.textmult 4 @glparams position scale rotatexyz color"
				}

			}
, 			{
				"box" : 				{
					"id" : "obj-26",
					"maxclass" : "message",
					"numinlets" : 2,
					"numoutlets" : 1,
					"outlettype" : [ "" ],
					"patching_rect" : [ 80.0, 374.0, 88.0, 22.0 ],
					"text" : "dim $1 1, bang"
				}

			}
, 			{
				"box" : 				{
					"id" : "obj-24",
					"maxclass" : "newobj",
					"numinlets" : 1,
					"numoutlets" : 1,
					"outlettype" : [ "" ],
					"patching_rect" : [ 204.0, 374.0, 75.0, 22.0 ],
					"text" : "prepend text"
				}

			}
, 			{
				"box" : 				{
					"id" : "obj-23",
					"maxclass" : "textbutton",
					"numinlets" : 1,
					"numoutlets" : 3,
					"outlettype" : [ "", "", "int" ],
					"parameter_enable" : 0,
					"patching_rect" : [ 80.0, 283.0, 100.0, 20.0 ],
					"text" : "Number"
				}

			}
, 			{
				"box" : 				{
					"id" : "obj-22",
					"maxclass" : "textbutton",
					"numinlets" : 1,
					"numoutlets" : 3,
					"outlettype" : [ "", "", "int" ],
					"parameter_enable" : 0,
					"patching_rect" : [ 204.0, 283.0, 100.0, 20.0 ],
					"text" : "Texts"
				}

			}
, 			{
				"box" : 				{
					"id" : "obj-21",
					"maxclass" : "newobj",
					"numinlets" : 1,
					"numoutlets" : 3,
					"outlettype" : [ "jit_matrix", "jit_matrix", "jit_matrix" ],
					"patcher" : 					{
						"fileversion" : 1,
						"appversion" : 						{
							"major" : 9,
							"minor" : 0,
							"revision" : 3,
							"architecture" : "x64",
							"modernui" : 1
						}
,
						"classnamespace" : "box",
						"rect" : [ 1346.0, 423.0, 715.0, 780.0 ],
						"gridsize" : [ 15.0, 15.0 ],
						"visible" : 1,
						"boxes" : [ 							{
								"box" : 								{
									"id" : "obj-11",
									"maxclass" : "newobj",
									"numinlets" : 2,
									"numoutlets" : 4,
									"outlettype" : [ "jit_matrix", "jit_matrix", "jit_matrix", "" ],
									"patcher" : 									{
										"fileversion" : 1,
										"appversion" : 										{
											"major" : 9,
											"minor" : 0,
											"revision" : 3,
											"architecture" : "x64",
											"modernui" : 1
										}
,
										"classnamespace" : "jit.gen",
										"rect" : [ 1586.0, 787.0, 600.0, 450.0 ],
										"gridsize" : [ 15.0, 15.0 ],
										"boxes" : [ 											{
												"box" : 												{
													"id" : "obj-14",
													"maxclass" : "newobj",
													"numinlets" : 1,
													"numoutlets" : 1,
													"outlettype" : [ "" ],
													"patching_rect" : [ 256.0, 158.0, 42.0, 22.0 ],
													"text" : "+ time"
												}

											}
, 											{
												"box" : 												{
													"id" : "obj-13",
													"maxclass" : "newobj",
													"numinlets" : 1,
													"numoutlets" : 1,
													"outlettype" : [ "" ],
													"patching_rect" : [ 256.0, 108.0, 37.0, 22.0 ],
													"text" : "* 360"
												}

											}
, 											{
												"box" : 												{
													"id" : "obj-12",
													"maxclass" : "newobj",
													"numinlets" : 1,
													"numoutlets" : 0,
													"patching_rect" : [ 256.0, 242.0, 35.0, 22.0 ],
													"text" : "out 3"
												}

											}
, 											{
												"box" : 												{
													"id" : "obj-11",
													"maxclass" : "newobj",
													"numinlets" : 1,
													"numoutlets" : 1,
													"outlettype" : [ "" ],
													"patching_rect" : [ 165.0, 158.0, 36.0, 22.0 ],
													"text" : "+ 0.2"
												}

											}
, 											{
												"box" : 												{
													"id" : "obj-10",
													"maxclass" : "newobj",
													"numinlets" : 1,
													"numoutlets" : 1,
													"outlettype" : [ "" ],
													"patching_rect" : [ 165.0, 109.0, 41.0, 22.0 ],
													"text" : "swiz x"
												}

											}
, 											{
												"box" : 												{
													"id" : "obj-9",
													"maxclass" : "newobj",
													"numinlets" : 1,
													"numoutlets" : 1,
													"outlettype" : [ "" ],
													"patching_rect" : [ 48.0, 158.0, 49.0, 22.0 ],
													"text" : "* radius"
												}

											}
, 											{
												"box" : 												{
													"id" : "obj-8",
													"maxclass" : "newobj",
													"numinlets" : 2,
													"numoutlets" : 1,
													"outlettype" : [ "" ],
													"patching_rect" : [ 48.0, 108.0, 81.0, 22.0 ],
													"text" : "scale 0 1 -1 1"
												}

											}
, 											{
												"box" : 												{
													"id" : "obj-7",
													"maxclass" : "newobj",
													"numinlets" : 0,
													"numoutlets" : 1,
													"outlettype" : [ "" ],
													"patching_rect" : [ 386.0, 68.0, 79.0, 22.0 ],
													"text" : "param time 0"
												}

											}
, 											{
												"box" : 												{
													"id" : "obj-6",
													"maxclass" : "newobj",
													"numinlets" : 0,
													"numoutlets" : 1,
													"outlettype" : [ "" ],
													"patching_rect" : [ 386.0, 31.0, 89.0, 22.0 ],
													"text" : "param radius 2"
												}

											}
, 											{
												"box" : 												{
													"id" : "obj-5",
													"maxclass" : "newobj",
													"numinlets" : 1,
													"numoutlets" : 0,
													"patching_rect" : [ 165.0, 242.0, 35.0, 22.0 ],
													"text" : "out 2"
												}

											}
, 											{
												"box" : 												{
													"id" : "obj-1",
													"maxclass" : "newobj",
													"numinlets" : 0,
													"numoutlets" : 1,
													"outlettype" : [ "" ],
													"patching_rect" : [ 48.0, 31.0, 28.0, 22.0 ],
													"text" : "in 1"
												}

											}
, 											{
												"box" : 												{
													"id" : "obj-2",
													"maxclass" : "newobj",
													"numinlets" : 0,
													"numoutlets" : 1,
													"outlettype" : [ "" ],
													"patching_rect" : [ 165.0, 31.0, 28.0, 22.0 ],
													"text" : "in 2"
												}

											}
, 											{
												"box" : 												{
													"id" : "obj-4",
													"maxclass" : "newobj",
													"numinlets" : 1,
													"numoutlets" : 0,
													"patching_rect" : [ 48.0, 242.0, 35.0, 22.0 ],
													"text" : "out 1"
												}

											}
 ],
										"lines" : [ 											{
												"patchline" : 												{
													"destination" : [ "obj-13", 0 ],
													"order" : 0,
													"source" : [ "obj-1", 0 ]
												}

											}
, 											{
												"patchline" : 												{
													"destination" : [ "obj-8", 0 ],
													"order" : 1,
													"source" : [ "obj-1", 0 ]
												}

											}
, 											{
												"patchline" : 												{
													"destination" : [ "obj-11", 0 ],
													"source" : [ "obj-10", 0 ]
												}

											}
, 											{
												"patchline" : 												{
													"destination" : [ "obj-5", 0 ],
													"source" : [ "obj-11", 0 ]
												}

											}
, 											{
												"patchline" : 												{
													"destination" : [ "obj-14", 0 ],
													"source" : [ "obj-13", 0 ]
												}

											}
, 											{
												"patchline" : 												{
													"destination" : [ "obj-12", 0 ],
													"source" : [ "obj-14", 0 ]
												}

											}
, 											{
												"patchline" : 												{
													"destination" : [ "obj-10", 0 ],
													"source" : [ "obj-2", 0 ]
												}

											}
, 											{
												"patchline" : 												{
													"destination" : [ "obj-9", 0 ],
													"source" : [ "obj-8", 0 ]
												}

											}
, 											{
												"patchline" : 												{
													"destination" : [ "obj-4", 0 ],
													"source" : [ "obj-9", 0 ]
												}

											}
 ],
										"originid" : "pat-560"
									}
,
									"patching_rect" : [ 135.0, 367.0, 163.0, 22.0 ],
									"text" : "jit.gen"
								}

							}
, 							{
								"box" : 								{
									"id" : "obj-10",
									"maxclass" : "newobj",
									"numinlets" : 1,
									"numoutlets" : 2,
									"outlettype" : [ "jit_matrix", "" ],
									"patching_rect" : [ 135.0, 299.0, 53.0, 22.0 ],
									"text" : "jit.matrix"
								}

							}
, 							{
								"box" : 								{
									"comment" : "",
									"id" : "obj-9",
									"index" : 3,
									"maxclass" : "outlet",
									"numinlets" : 1,
									"numoutlets" : 0,
									"patching_rect" : [ 231.0, 439.0, 30.0, 30.0 ]
								}

							}
, 							{
								"box" : 								{
									"comment" : "",
									"id" : "obj-8",
									"index" : 2,
									"maxclass" : "outlet",
									"numinlets" : 1,
									"numoutlets" : 0,
									"patching_rect" : [ 183.0, 439.0, 30.0, 30.0 ]
								}

							}
, 							{
								"box" : 								{
									"id" : "obj-7",
									"maxclass" : "newobj",
									"numinlets" : 1,
									"numoutlets" : 2,
									"outlettype" : [ "bang", "" ],
									"patching_rect" : [ 436.0, 246.0, 29.5, 22.0 ],
									"text" : "t b l"
								}

							}
, 							{
								"box" : 								{
									"id" : "obj-6",
									"maxclass" : "newobj",
									"numinlets" : 1,
									"numoutlets" : 1,
									"outlettype" : [ "" ],
									"patching_rect" : [ 436.0, 201.0, 79.0, 22.0 ],
									"text" : "prepend time"
								}

							}
, 							{
								"box" : 								{
									"id" : "obj-5",
									"maxclass" : "newobj",
									"numinlets" : 1,
									"numoutlets" : 2,
									"outlettype" : [ "", "" ],
									"patching_rect" : [ 436.0, 152.0, 164.0, 22.0 ],
									"text" : "jit.time @speed 10 @start 10"
								}

							}
, 							{
								"box" : 								{
									"id" : "obj-4",
									"maxclass" : "newobj",
									"numinlets" : 1,
									"numoutlets" : 2,
									"outlettype" : [ "jit_matrix", "" ],
									"patching_rect" : [ 279.0, 152.0, 125.0, 22.0 ],
									"text" : "jit.noise 4 float32 50 1"
								}

							}
, 							{
								"box" : 								{
									"id" : "obj-3",
									"maxclass" : "newobj",
									"numinlets" : 1,
									"numoutlets" : 2,
									"outlettype" : [ "jit_matrix", "" ],
									"patching_rect" : [ 135.0, 152.0, 125.0, 22.0 ],
									"text" : "jit.noise 4 float32 50 1"
								}

							}
, 							{
								"box" : 								{
									"comment" : "",
									"id" : "obj-2",
									"index" : 1,
									"maxclass" : "outlet",
									"numinlets" : 1,
									"numoutlets" : 0,
									"patching_rect" : [ 135.0, 439.0, 30.0, 30.0 ]
								}

							}
, 							{
								"box" : 								{
									"comment" : "",
									"id" : "obj-1",
									"index" : 1,
									"maxclass" : "inlet",
									"numinlets" : 0,
									"numoutlets" : 1,
									"outlettype" : [ "" ],
									"patching_rect" : [ 135.0, 91.0, 30.0, 30.0 ]
								}

							}
 ],
						"lines" : [ 							{
								"patchline" : 								{
									"destination" : [ "obj-3", 0 ],
									"order" : 1,
									"source" : [ "obj-1", 0 ]
								}

							}
, 							{
								"patchline" : 								{
									"destination" : [ "obj-4", 0 ],
									"order" : 0,
									"source" : [ "obj-1", 0 ]
								}

							}
, 							{
								"patchline" : 								{
									"destination" : [ "obj-11", 0 ],
									"source" : [ "obj-10", 0 ]
								}

							}
, 							{
								"patchline" : 								{
									"destination" : [ "obj-2", 0 ],
									"source" : [ "obj-11", 0 ]
								}

							}
, 							{
								"patchline" : 								{
									"destination" : [ "obj-8", 0 ],
									"source" : [ "obj-11", 1 ]
								}

							}
, 							{
								"patchline" : 								{
									"destination" : [ "obj-9", 0 ],
									"source" : [ "obj-11", 2 ]
								}

							}
, 							{
								"patchline" : 								{
									"destination" : [ "obj-10", 0 ],
									"source" : [ "obj-3", 0 ]
								}

							}
, 							{
								"patchline" : 								{
									"destination" : [ "obj-11", 1 ],
									"source" : [ "obj-4", 0 ]
								}

							}
, 							{
								"patchline" : 								{
									"destination" : [ "obj-6", 0 ],
									"source" : [ "obj-5", 0 ]
								}

							}
, 							{
								"patchline" : 								{
									"destination" : [ "obj-7", 0 ],
									"source" : [ "obj-6", 0 ]
								}

							}
, 							{
								"patchline" : 								{
									"destination" : [ "obj-10", 0 ],
									"source" : [ "obj-7", 0 ]
								}

							}
, 							{
								"patchline" : 								{
									"destination" : [ "obj-11", 0 ],
									"source" : [ "obj-7", 1 ]
								}

							}
 ],
						"originid" : "pat-558"
					}
,
					"patching_rect" : [ 279.0, 487.0, 211.0, 22.0 ],
					"saved_object_attributes" : 					{
						"globalpatchername" : ""
					}
,
					"text" : "p generate_motion"
				}

			}
, 			{
				"box" : 				{
					"id" : "obj-14",
					"maxclass" : "newobj",
					"numinlets" : 2,
					"numoutlets" : 2,
					"outlettype" : [ "int", "" ],
					"patcher" : 					{
						"fileversion" : 1,
						"appversion" : 						{
							"major" : 9,
							"minor" : 0,
							"revision" : 3,
							"architecture" : "x64",
							"modernui" : 1
						}
,
						"classnamespace" : "box",
						"rect" : [ 1211.0, 327.0, 1000.0, 780.0 ],
						"gridsize" : [ 15.0, 15.0 ],
						"boxes" : [ 							{
								"box" : 								{
									"comment" : "",
									"id" : "obj-15",
									"index" : 2,
									"maxclass" : "outlet",
									"numinlets" : 1,
									"numoutlets" : 0,
									"patching_rect" : [ 461.0, 651.0, 30.0, 30.0 ]
								}

							}
, 							{
								"box" : 								{
									"comment" : "",
									"id" : "obj-14",
									"index" : 1,
									"maxclass" : "outlet",
									"numinlets" : 1,
									"numoutlets" : 0,
									"patching_rect" : [ 211.0, 651.0, 30.0, 30.0 ]
								}

							}
, 							{
								"box" : 								{
									"id" : "obj-12",
									"maxclass" : "message",
									"numinlets" : 2,
									"numoutlets" : 1,
									"outlettype" : [ "" ],
									"patching_rect" : [ 461.0, 331.0, 65.0, 22.0 ],
									"text" : "Hello Jitter"
								}

							}
, 							{
								"box" : 								{
									"id" : "obj-10",
									"maxclass" : "newobj",
									"numinlets" : 2,
									"numoutlets" : 2,
									"outlettype" : [ "", "" ],
									"patching_rect" : [ 396.0, 429.0, 37.0, 22.0 ],
									"text" : "zl.len"
								}

							}
, 							{
								"box" : 								{
									"comment" : "",
									"id" : "obj-9",
									"index" : 2,
									"maxclass" : "inlet",
									"numinlets" : 0,
									"numoutlets" : 1,
									"outlettype" : [ "" ],
									"patching_rect" : [ 461.0, 273.0, 30.0, 30.0 ]
								}

							}
, 							{
								"box" : 								{
									"id" : "obj-8",
									"maxclass" : "newobj",
									"numinlets" : 2,
									"numoutlets" : 2,
									"outlettype" : [ "", "" ],
									"patching_rect" : [ 281.000000000000057, 519.0, 105.0, 22.0 ],
									"text" : "zl 1000 group 100"
								}

							}
, 							{
								"box" : 								{
									"id" : "obj-7",
									"maxclass" : "newobj",
									"numinlets" : 1,
									"numoutlets" : 4,
									"outlettype" : [ "int", "bang", "int", "int" ],
									"patching_rect" : [ 210.999999999999972, 429.0, 124.000000000000114, 22.0 ],
									"text" : "t i b i i"
								}

							}
, 							{
								"box" : 								{
									"id" : "obj-6",
									"maxclass" : "newobj",
									"numinlets" : 2,
									"numoutlets" : 3,
									"outlettype" : [ "bang", "bang", "int" ],
									"patching_rect" : [ 246.0, 471.0, 54.000000000000057, 22.0 ],
									"text" : "Uzi"
								}

							}
, 							{
								"box" : 								{
									"id" : "obj-5",
									"maxclass" : "message",
									"numinlets" : 2,
									"numoutlets" : 1,
									"outlettype" : [ "" ],
									"patching_rect" : [ 211.0, 331.0, 29.5, 22.0 ],
									"text" : "100"
								}

							}
, 							{
								"box" : 								{
									"id" : "obj-3",
									"maxclass" : "number",
									"numinlets" : 1,
									"numoutlets" : 2,
									"outlettype" : [ "", "bang" ],
									"parameter_enable" : 0,
									"patching_rect" : [ 211.0, 378.0, 50.0, 22.0 ]
								}

							}
, 							{
								"box" : 								{
									"comment" : "",
									"id" : "obj-1",
									"index" : 1,
									"maxclass" : "inlet",
									"numinlets" : 0,
									"numoutlets" : 1,
									"outlettype" : [ "" ],
									"patching_rect" : [ 211.0, 267.0, 30.0, 30.0 ]
								}

							}
 ],
						"lines" : [ 							{
								"patchline" : 								{
									"destination" : [ "obj-5", 0 ],
									"source" : [ "obj-1", 0 ]
								}

							}
, 							{
								"patchline" : 								{
									"destination" : [ "obj-14", 0 ],
									"source" : [ "obj-10", 0 ]
								}

							}
, 							{
								"patchline" : 								{
									"destination" : [ "obj-10", 0 ],
									"order" : 1,
									"source" : [ "obj-12", 0 ]
								}

							}
, 							{
								"patchline" : 								{
									"destination" : [ "obj-15", 0 ],
									"order" : 0,
									"source" : [ "obj-12", 0 ]
								}

							}
, 							{
								"patchline" : 								{
									"destination" : [ "obj-7", 0 ],
									"source" : [ "obj-3", 0 ]
								}

							}
, 							{
								"patchline" : 								{
									"destination" : [ "obj-3", 0 ],
									"source" : [ "obj-5", 0 ]
								}

							}
, 							{
								"patchline" : 								{
									"destination" : [ "obj-8", 0 ],
									"source" : [ "obj-6", 2 ]
								}

							}
, 							{
								"patchline" : 								{
									"destination" : [ "obj-14", 0 ],
									"source" : [ "obj-7", 0 ]
								}

							}
, 							{
								"patchline" : 								{
									"destination" : [ "obj-6", 1 ],
									"source" : [ "obj-7", 2 ]
								}

							}
, 							{
								"patchline" : 								{
									"destination" : [ "obj-6", 0 ],
									"source" : [ "obj-7", 1 ]
								}

							}
, 							{
								"patchline" : 								{
									"destination" : [ "obj-8", 1 ],
									"source" : [ "obj-7", 3 ]
								}

							}
, 							{
								"patchline" : 								{
									"destination" : [ "obj-15", 0 ],
									"source" : [ "obj-8", 0 ]
								}

							}
, 							{
								"patchline" : 								{
									"destination" : [ "obj-12", 0 ],
									"source" : [ "obj-9", 0 ]
								}

							}
 ],
						"originid" : "pat-534"
					}
,
					"patching_rect" : [ 80.0, 332.0, 143.0, 22.0 ],
					"saved_object_attributes" : 					{
						"globalpatchername" : ""
					}
,
					"text" : "p generate_text"
				}

			}
, 			{
				"box" : 				{
					"fontface" : 0,
					"fontname" : "Arial",
					"fontsize" : 12.0,
					"id" : "obj-13",
					"maxclass" : "jit.fpsgui",
					"numinlets" : 1,
					"numoutlets" : 2,
					"outlettype" : [ "", "" ],
					"patching_rect" : [ 119.0, 175.0, 80.0, 36.0 ]
				}

			}
, 			{
				"box" : 				{
					"id" : "obj-11",
					"maxclass" : "newobj",
					"numinlets" : 1,
					"numoutlets" : 3,
					"outlettype" : [ "jit_matrix", "bang", "" ],
					"patching_rect" : [ 80.0, 134.0, 97.0, 22.0 ],
					"text" : "jit.world @fsaa 1"
				}

			}
, 			{
				"box" : 				{
					"id" : "obj-9",
					"maxclass" : "toggle",
					"numinlets" : 1,
					"numoutlets" : 1,
					"outlettype" : [ "int" ],
					"parameter_enable" : 0,
					"patching_rect" : [ 80.0, 81.0, 24.0, 24.0 ],
					"svg" : ""
				}

			}
 ],
		"lines" : [ 			{
				"patchline" : 				{
					"destination" : [ "obj-13", 0 ],
					"source" : [ "obj-11", 1 ]
				}

			}
, 			{
				"patchline" : 				{
					"destination" : [ "obj-24", 0 ],
					"source" : [ "obj-14", 1 ]
				}

			}
, 			{
				"patchline" : 				{
					"destination" : [ "obj-26", 0 ],
					"source" : [ "obj-14", 0 ]
				}

			}
, 			{
				"patchline" : 				{
					"destination" : [ "obj-27", 2 ],
					"source" : [ "obj-21", 2 ]
				}

			}
, 			{
				"patchline" : 				{
					"destination" : [ "obj-27", 1 ],
					"source" : [ "obj-21", 1 ]
				}

			}
, 			{
				"patchline" : 				{
					"destination" : [ "obj-27", 0 ],
					"source" : [ "obj-21", 0 ]
				}

			}
, 			{
				"patchline" : 				{
					"destination" : [ "obj-14", 1 ],
					"source" : [ "obj-22", 0 ]
				}

			}
, 			{
				"patchline" : 				{
					"destination" : [ "obj-14", 0 ],
					"source" : [ "obj-23", 0 ]
				}

			}
, 			{
				"patchline" : 				{
					"destination" : [ "obj-27", 0 ],
					"source" : [ "obj-24", 0 ]
				}

			}
, 			{
				"patchline" : 				{
					"destination" : [ "obj-21", 0 ],
					"order" : 1,
					"source" : [ "obj-26", 0 ]
				}

			}
, 			{
				"patchline" : 				{
					"destination" : [ "obj-36", 0 ],
					"order" : 0,
					"source" : [ "obj-26", 0 ]
				}

			}
, 			{
				"patchline" : 				{
					"destination" : [ "obj-31", 0 ],
					"source" : [ "obj-30", 0 ]
				}

			}
, 			{
				"patchline" : 				{
					"destination" : [ "obj-34", 0 ],
					"source" : [ "obj-31", 0 ]
				}

			}
, 			{
				"patchline" : 				{
					"destination" : [ "obj-30", 0 ],
					"source" : [ "obj-33", 0 ]
				}

			}
, 			{
				"patchline" : 				{
					"destination" : [ "obj-35", 0 ],
					"source" : [ "obj-34", 0 ]
				}

			}
, 			{
				"patchline" : 				{
					"destination" : [ "obj-27", 0 ],
					"source" : [ "obj-35", 0 ]
				}

			}
, 			{
				"patchline" : 				{
					"destination" : [ "obj-27", 3 ],
					"source" : [ "obj-36", 0 ]
				}

			}
, 			{
				"patchline" : 				{
					"destination" : [ "obj-27", 0 ],
					"source" : [ "obj-37", 0 ]
				}

			}
, 			{
				"patchline" : 				{
					"destination" : [ "obj-37", 0 ],
					"source" : [ "obj-39", 0 ]
				}

			}
, 			{
				"patchline" : 				{
					"destination" : [ "obj-11", 0 ],
					"source" : [ "obj-9", 0 ]
				}

			}
 ],
		"originid" : "pat-258",
		"dependency_cache" : [ 			{
				"name" : "jit.gl.textmult.maxpat",
				"bootpath" : "C74:/packages/Jitter Tools/patchers/abstractions",
				"type" : "JSON",
				"implicit" : 1
			}
, 			{
				"name" : "multiple_text.js",
				"bootpath" : "C74:/packages/Jitter Tools/javascript/textmultiple",
				"type" : "TEXT",
				"implicit" : 1
			}
 ],
		"autosave" : 0
	}

}
